<mxfile host="app.diagrams.net" modified="2023-02-14T07:21:25.091Z" agent="5.0 (Windows NT 10.0; Win64; x64) AppleWebKit/537.36 (KHTML, like Gecko) Chrome/109.0.0.0 Safari/537.36" etag="Lj1juJlW8H82C5w2nUxg" version="20.2.2" type="github">
  <diagram id="1uPzo7mFErnz8yBXKMdV" name="Page-1">
    <mxGraphModel dx="782" dy="436" grid="1" gridSize="10" guides="1" tooltips="1" connect="1" arrows="1" fold="1" page="1" pageScale="1" pageWidth="850" pageHeight="1100" math="0" shadow="0">
      <root>
        <mxCell id="0" />
        <mxCell id="1" parent="0" />
        <mxCell id="6xzkn71QcSRI05iNK7XL-1" value="" style="shape=image;verticalLabelPosition=bottom;verticalAlign=top;imageAspect=0;aspect=fixed;image=data:image/jpeg,/9j/4AAQSkZJRgABAQAAAQABAAD/2wCEAAMCAgYGBgUGBgcGCAYGBggGBQgICAYHBwYIBgYGBggGCAgGBgYGBgYGBgYFBQoFBQcICQkJBQULDQoIDQYICQgBAwQEBgUGCAYGCAgICAgICAgICAgICAgICAgICAgICAgICAgICAgICAgICAgICAgICAgICAgICAgICAgICAgICP/AABEIA4QDhAMBIgACEQEDEQH/xAAeAAEAAgICAwEAAAAAAAAAAAAAAgkBCAYHAwUKBP/EAFQQAQACAQIDBAUGCAYQBgIDAAABAgMEEQUGEgcIITEJQVFhcRMiMoGRoRQ2QnKxstHwI1JVgpKTFRgZJCYzNVNUYnR1wdLT4RclQ3Oi8RZjNIPC/8QAHAEBAAMBAQEBAQAAAAAAAAAAAAQFBgMCAQcI/8QAPREBAAIBAQQGBwcEAQMFAAAAAAECAxEEEiExBUFRYXGREzJSgaGx0QYUIjNywfAVQuHxYiOSwiRTc6Ky/9oADAMBAAIRAxEAPwDQcBsGCAAAAAAAAAAAAAAAAAAAAAAAAAAAAAAAAAAAAAAAAAAAAAAAAAAAAAAAAAAAAAAAAAAAAAAAAAAAAAAAAAAAAAAAAAAAAAAAAAAAAAAAAAAAAAAZqkjVIEAAAAAAAAAAAAAAAAAAAAAAAAAAAAAAAAAAAAAAAAAAAAAAAAAAAAAAAAAAAAAAAAAAAAAAAAAAAAAAAAAAAAAAAAAAAAAAAAAAAAAAAAAAAAAAAAZqkjVIEAAAAAAAAAAAAAAAAAAAAAAAAAAAAAAAAAAAAAAAAAAAAAAAAAAAAAAAAAAAAAAAAAAAAAAAAAAAAAAAAAAAAAAAAAAAAAAAAAAAAAAAAAAAAAAAAZqkjVIEAAAAAAAAAAAAAAAAAAAAAAAAAAAAAAAAAAAAAAAAAAAAAAAAAAAAAAAAAAAAAAAAAAAAAAAAAAAAAAAAAAAAAAAAAAAAAAAAAAAAAAAAAAAAAAAAZqkjVIEAAAAAAAAAAAAAAAAAAAAAAAAAAAAAAAAAAAAAAAAAAAAAAAAAAAAAAAAAAAAAAAAAAAAAAAAAAAAAAAAAAAAAAAAAAAAAAAAAAAAAAAAAAAAAAAAZqkjVIEAAAAAAAAAAAAAAAAAAAAAAAAAAAAAAAAAAAAAAAAAAAAAAAAAAAAAAAAAAAAAAAAAAAAAAAAAAAAAAAAAAAAAAAAAAAAAAAAAAAAAAAAAAAAAAAAZqkjVIEAAAAAAAAAAAAAAAAAAAAAAAAAAAAAAAAAAAAAAAAAAAAAAAAAAAAAAAAAAAAAAAAAAAAAAAAAAAAAAAAAAAAAAAAAAAAAAAAAAAAAAAAAAAAAAAAZqkjVIEAAAAAAAAAAAAAAAAAAAAAAAAAAAAAAAAAAAAAAAAAAAAAAAAAAAAAAAAAAAAAAAAAAAAAAAAAAAAAAAAAAAAAAAAAAAAAAAAAAAAAAAAAAAAAAAAZqkjVIEAAAAAAAAAAAAAAAAAAAAAAAAAAAAAAAAAAAAAAAAAAAAAAAAAAAAAAAAAAAAAAAAAAAAAAAAAAAAAAAAAAAAAAAAAAAAAAAAAAAAAAAAAAAAAAAAZqkjVIEAAAAAAAAAAAAAAAAAAAAAAAAAAAAAAAAAAAAAAAAAAAAAAAAAAAAAAAAAAAAAAAAAAAAAAAAAAAAAAAAAAAAAAAAAAAAAAAAAAAAAAAAAAAAAAAAZqkjVIEAAAAAAAAAAAAAAAAAAAAAAAAAAAAAAAAAAAAAAAAAAAAAAAAAAAAAAAAAAAAAAAAAAAAAAAAAAAAAAAAAAAAAAAAAAAAAAAAAAAAAAAAAAAAAAAAZqkjVIEAAAAAAAAAAAAAAAAAAAAAAAAAAAAAAAAAAAAAAAAAAAAAAAAAAAAAAAAAAAAAAAAAAAAAAAAAAAAAAAAAAAAAAAAAAAAAAAAAAAAAAAAAAAAAAAAZqkjVIEAAAAAAAAAAAAAAAAAAAAAAAAAAAAAAAAAAAAAAAAAAAAAAAAAAAAAAAAAAAAAAAAAAAAAAAAAAAAAAAAAAAAAAAAAAAAAAAAAAAAAAAAAAAAAAAAZqkjVIEAAAAAAAAAAAAAAAAAAAAAAAAAAAAAAAAAAAAAAAAAAAAAAAAAAAAAAAAAAAAAAAAAAAAAAAAAAAAAAAAAAAAAAAAAAAAAAAAAAAAAAAAAAAAAAAAZqkjVIEAAAAAAAAAAAAAAAAAAAAAAAAAAAAAAAAAAAAAAAAAAAAAAAAAAAAAAAAAAAAAAAAAAAAAAAAAAAAAAAAAAAAAAAAAAAAAAAAAAAAAAAAAAAAAAAAZqkjVIEAAAAAAAAAAAAAAAAAAAAAAAAAAAAAAAAAAAAAAAAAAAAAAAAAAAAAAAAAAAAAAAAAAAAAAAAAAAAAAAAAAAAAAAAAAAAAAAAAAAAAAAAAAAAAAAAZqkjVIEAAAAAAAAAAAAAAAAAAAAAAAAAAAAAAAAAAAAAAAAAAAAAAAAAAAAAAAAAAAAAAAAAAAAAAAAAAAAAAAAAAAAAAAAAAAAAAAAAAAAAAAAAAAAAAAAZqkjVIEAAAAAAAAAAAAAAAAAAAAAAAAAAAAAAAAAAAAAAAAAAAAAAAAAAAAAAAAAAAAAAAAAAAAAAAAAAAAAAAAAAAAAAAAAAAAAAAAAAAAAAAAAAAAAAAAZqkjVIEAAAAAAAAAAAAAAAAAAAAAAAAAAAAAAAAAAAAAAAAAAAAAAAAAAAAAAAAAAAAAAAAAAAAAAAAAAAAAAAAAAAAAAAAAAAAAAAAAAAAAAAAAAAAAAAAZqkjVIEAAAAAAAAAAAAAAAAAAAAAAAAAAAAAAAAAAAAAAAAAAAAAAAAAAAAAAAAAAAAAAAAAAAAAAAAAAAAAAAAAAAAAAAAAAAAAAAAAAAAAAAAAAAAAAAAZqkjVIEAAAAAAAAAAAAAAAAAAAAAAAAAAAAAAAAAAAAAAAAAAAAAAAAAAAAAAAAAAAAAAAAAAAAAAAAAAAAAAAAAAAAAAAAAAAAAAAAAAAAAAAAAAAAAAAAZqkjVIEAAAAAAAAAAAAAAAAAAAAAAAAAAAAAAAAAAAAAAAAAAAAAAAAAAAAAAAAAAAAAAAAAAAAAAAAAAAAAAAAAAAAAAAAAAAAAAAAAAAAAAAAAAAAAAAAZqkjVIEAAAAAAAAAAAAAAAAAAAAAAAAAAAAAAAAAAAAAAAAAAAAAAAAAAAAAAAAAAAAAAAAAAAAAAAAAAAAAAAAAAAAAAAAAAAAAAAAAAAAAAAAAAAAAAAAZqkjVIEAAAAAAAAAAAAAAAAAAAAAAAAAAAAAAAAAAAAAAAAAAAAAAAAAAAAAAAAAAAAAAAAAAAAAAAAAAAAAAAAAAAAAAAAAAAAAAAAAAAAAAAAAAAAAAAAZqkjVIEAAAAAAAAAAAAAAAAAAAAAAAAAAAAAAAAAAAAAAAAAAAABiZdmdhfd54xzZrPwXheHqrSY/Cc1vm4sFfXM2nw6tvKm7za0VjWeEPVazadIjWZ6nWe5ErIuE+iIn5KPwjjc/LTHjEY/Cs+z6pa+947uCcc5Ww21tJ/DuH1n+FzY675MXsm1I3np28Zt6tkeu047TpFuKVfY8tI3prw8/k1gEYn9/VKSUhgAAAAAAAAAAAAAAAAAAAAAAAAAAAAAAAAAAAAAAAAAAAAAAAAAAAAAAAAAAAAAM1SRqkCAAAAAAAAAAAAAAAAAAAAAAAAAAAAAAAAAAAAAAAAAAAAFK7zWPXa0Uj43mIifqXp9zPsiwcB5X4Xgx0rGfUYo1GtvEbWzXvEzEzMePza7R9cqLcd9rVn+LeuT+hMW2+te/wB0XtTwcc5Y4TqcV6zkxYK4dVSJibYrUrMbWj1bxET4qvb9d2OzXj+y66M3d+2vPTh+7ut+Li3DMeoxZcGasXxZ6WxZq28YtS9bRau0+HjG79kWh+XiHEMeHHfLktWuPFW2TLaZiK0rWszMzPq2jxUbRqEe8/2dYuB8zcb4fgrFdNj1Vp0lY8qY5nfpdWw7b713aDi4zzTxvW4Ji2nnVWpprR5XpE7dX2upIazHruxrz0jXyYfLpv205azp4agDo5AAAAAAAAAAAAAAAAAAAAAAAAAAAAAAAAAAAAAAAAAAAAAAAAAAAAAAAAAAAAM1SRqkCAAAAAAAAAAAG4DG7y6bS3y2rTHS972nataVm9p/m1iZ+tsZ2YdwLm7jOPFnjSfgmnyxE0y5p84n19E/Oh4tetfWmI8XSmO150rEz4Q1u6zrhYLw30Q/FJiJz8f0cTMfRrgvPT7pnyn6nr+O+iQ45jra2m41o8+3lj+SvS32z4I/3rF7UfH6Jf3HN7PyaFRLLvztI7jvN/BqZM2fh18unp42y4p69oj19Nd5+p0NqNLfHaa5KZKWjzjJWaT9loiUit629WYnwRL47U9aJjxhAIke3MY3Zx0m0xERaZnwiIje0/CI8Z+p3l2Udy/mrj9K5tJoMmPTWnaM+X+Dj+jbafe8WvFY1mYjxe6UtedKxM+Dozrg64b98E9EZxm9aW1PHNHi3j52OMN7Wj+dHgnxn0RfF6VtbTcc0eSYjwxzhvWbfC3l9qP96xe1Hx+iX9xzez8mgUSO9e1juV818ApfPqtBfLpaT87Ph+fHx6K728vHydFXpNZmJi0THnExMWj4xPjH1pFbxaNazE+CJelqTpaJjxA3Ye3g3N3enZF3NuZOZOH14nwzBW+ltltirabRG9qbdXn7N4+1zX+5s86f6Lj/AKyv7XGc1InSbR5u8bPkmNYraYnuarbsu7+17ud8x8t6GOIcTwVpp5yRj6otE7Wny328t/HzdackdmvE+MZqafhujz6jLedqxWtuif5+3T971F6zGsTGna8TjtE7sxMT2aONdR1Ns+WPRnc46mKzmxYtLvG+17RaY907S83O/o1OZeG6LU63Jn0+THp8c5MlaxtPTWN5lz+8Y9dN6Hb7rl013Z8mo+7G7l/ZX2Xa7mDiFOG8OrW2qvFppW0xXq6Z2mImfX7nfX9zZ50/0XH/AFlf2vdstK8JmI8XOmG941rWZ8IarbstqP7mzzp/ouP+sr+10F2odl/EeX9fl4bxPDOHVY69c1nxi1Z8rxPlMT7iuWlp0iYn3vl8N6RrasxHfDigxEsurkAlhxTe1a1iZta0VrEeczM7REe3xBDc3bP8K9HXzlqMODPTSV6M2KuWm96xPTesWjeJnwnaYnaX6v7mzzp/ouP+sr+1w9Pj9qPNI+7ZfYt5NVnbvd47znGOT9XbPw60XwZZidVpckz8jn29c/xZ29jz9tHdT47ytptPquLY6Y8eoyTiwxFomb2iImY2jx8ImJeDsU7rnHeasOqzcJw1yU014x5t7RG1rRvEePuh9talq6zMTX4FaZKXiKxMW56dberhHpdeEThr+FcP1FNR0/PrjibY4t64iZ8Zj3y157ynpGeLcxYcmg4fijQ8OvE1y2ra3y2prPhNb/xY28Noeoj0bnOv+jU/rKftes5k9HxzfotLqdZn0tPktNitmzTF6zMVpEzM+HntEbodKbPWdYmNerjqn5Mm1WrpMWiOvho1niEkYt4RPt8vqnZJZKgGJl7blvlPWcQzU0+i0+bPmvPTSuOlrVmZ9tqxtX63yZ0fYjXk9T1HW2x5C9GnzhxDonUYsegpaImLZZi+0T4+MRO8O19F6IXiW38NzBpOrbyrgv4e7x80a2044/uj5/JMrseW0axWffw+avfrhmJb3cx+iU49hpa+l4xo9TMeWOMVsdvtt4Nce1Xumcz8v1tl4hw7NGnj/wBbHvliY9u1N9numfHblaHjJs2WnOs+PP5OnwmJjwmJifZMbWj4x5x9Zu7ooDEyDLHVD3XKfJeu4nnpptBps2ozXnatcdbTXefbaI2j620/IPowebNfFLaq2Dh0Wjeflf4Sa/GK+O/ucr5a09aYh2x4b5PVrMtPus6oWFYvRC8R6Pncw6ScntjT36f2uD89eiv5o0VJvo9VpuI+uK46zimfd89xjasU/wB0JE7FmiNd2fdx+TS4cp7QeyzivA9RbS8V0efTZq+q1Zmnx6/o/e4rEpUTE8YQprNZ0ngyDkPZ7yJq+NcQ03DdDXq1Wp3+Rr5b7EzpxkiJmdIcd3N21P8Ac2edP9Fx/wBZX9pPo2udP9Fx/wBZX9rj6fH7UeaR92y+xbyarsdTkfH+z/XaTiWp4Tkw5La7T5fkMuLHWckxefVPTE7R75bCdm3o4+buK1xZMuGmhw5Iia3zTv4T65r5vVstaxrMxDxTDe86VrMz4cmrHWdULCdL6IXiPT/CcwaTr/1cF9o93j5uJc5+im5l0lJvpNfpdf4bxWlJxT8PnetxjasU8N6Pj9EidizRGu7LSQcy7SexzjPAM86fi2iz6fJ6pmtrUn39cfNj7XDIlKiYnjCFNZrOkxoyA+vgDEyDLG7zaPQ5M1opipe9pnaIpE2+3aPD63a3LHdc49rK1vbB8hjt4xa87+E+vZC2nbdn2WNc+SmOP+VoiZ8I5z7ocr5aU42tEeMuo+o6obO6HuNayY3y8U00f6vRO8PDxLuPa+kTbFxLTZPZXomJ+1SR9p+jJnT7xX/tyaee5ojffsHLfjyt9GtO47M5u7unHOH1nJk0tsmKPO9PH7o8XWd8c1mYtFqzHhMWiaz4e6Y3X2z7Xh2mu9hyUvHbW0T56cvelUyVvGtZiY7p1DdiZdh9jPYbxPmfVZtHwutL6jDTrtS1orNo9sb+eyRNoiNZ4Q7VrNp0iNZ7HXm5u2p/ubPOn+i4/wCsr+1DN6N3nSsWn8EpO1Zt4Xr47Rvt5+cuXp8ftR5u/wB2y+xbyatD9fGeE5dLnzabPSaZsGSceWs+dbVmYn9D8jujAPe8ickavjGv0fDdDjnJqtXk+Tw1j2+/2R73yZ04y+xEzOkPQ7m7an+5tc6f6Lj/AKdf2vycV9HVzlgw5s99JWa4aTktEXrMzFY3naInx8ImXH0+P2o83f7tl9i3k1iE9Vp7Y73x3iYvjvOO8T51tWdpj6phB3RwYmXL+yrsr4hzFxDHwzhmL5TVZMc5a18oitfO0z5REe98mYiNZfYiZnSOMuIbm7an+5s86f6Lj/rK/tP7mzzp4f3rj8f9evh97j6fH7UeaR92y+xbyarj3XOvKOfhev1nDtVtGp0eWcGoiJiYrePOu8eE/F6WHaJ15I8xpwkAfXwAAAAABmqSNUgQAAAAAAAAAAl7XlLlTVcT1mm0OixWy6nU5K48NKxv42mI6reykb+NvU9TKwj0UHZHiz6viXHs1d7aOPwfSbxvt8pWd5+O0TO/ucc2T0dJt/NUjBi9LeKdvPw62zfdK7jnDOVtPh1Osx49Txq9Itny3rW1NNMx/iscT4TWv8fz8G0tMURtt4RHlEeEfZ5QlWuzx6nU1x1te9orSlZteZnaK1rG82mfZERMsxe83nW06y2OPHXHXdrGkR/OLydEeyDohqb2oekl5S4TmyYMWTLr8mKZrk/BttotE7TXe0RvtPhu9byJ6T7lHW3imp/CNBE/l6jaax8emJdPQZNNd2XL7zi103418f5DcG+CJiYnxifOLfOifqnwaa+kI7MeU8fAtVxPiGDDh4hEdPD74orTJnyeHzOmu3VHjvPh6m0/AO0fhmu0X9kdJrNPm0MY5y2z0vE1rSsTM2mNomsRET9KIU39+fvKX5q43kx4L/8AlnD7zi0VYnwtevzbZvZMW2dtlx2tfhrGnPq9yPtualcfHSd7hHX7/c1r/f6vHb63sOXuXtRrtRg0ukxXy5894x4qUiZta1p29Xqj1vWzO0TM+UeNvctM9Gb3W66PSf8A5PxDF/ferr08OpeN/ksW8baisT5WvE+fuXebLGKus+6O2Wc2fBOa+7HCOueyHLe6J6Pfh/Asen4lxvHTVcXmsZK47RFsOj3jeK1jyvaPX1eUtz8OlrSIrWIrEeUVjprH1R4PJWNnreYeY9NodPm1WrzY8Onw0m+bJeYrWlYjffx8590eLN3yWyTrPGf5ya7HipirpWNIj+azL2U1gisexo12m+lV4Boc18PDdNqNd0zt8vSYjFbb2RPi/P2b+lc4HrM+PDxPR6jRVtbac9picWPfw3tEeP2Ov3bJpruz+/k5fe8Wum9H7efJvTm0tbxNbRFqz4TFo6qz9U+DS/veej50HHMWo4jwWlNLxatZyTjrEVxavbeZrMR4VtPqiG4PLnMul1+nw6vR5sebT5qxfDkpMTW8T4+ry+EvZ2ru50vbHOscJ/nN1yYq5a6WjWP5xiXzice4DqNDqM+k1WO+LUYMk482O8TE1tWdpmN9vm+HhL8NPOFnnpOO6/TPpo5n4fi21GD5vF4rH+MxbRFckREfT3nxlWHTzj9/q+po8OWMtd6Pf3SyO0YJw3ms+6e2FxfowK/4E4fGf8oZvXP8bG29+T98/bLUP0X/AOJOH/eGb9bG2/Z7P+Zbxlqtl/Kp+mHV/bt2EaPmnRafQa7Jkrpseprny1rO/wAtFd/4Od58In2uSdn/AGXcL4JpcWj4ZpMOnwYo2pFax1/Gb/SmZ97lbFrxH/fwj7XLenTd14djvuV13tOPb1sRT4/bLr/vAR/g9xvz/wD4eT9R7XmXtX4Rw+YrreIaTBb2WyVmfuiZj4TDrztY7WOD8R4Bxumi4hpM950eTatclYmfmT7dt3qlZ1idJ5x1PN7RpMaxrpPDXuUj9n3PGbg/EtFxPT2tGTR6qc3zZmJvEZPGnh6pj1L+uy3nfDxjhXDeJYbxaur01Mtum28Vvateqk+PhNbTMbPnitO0zP8A+zJ+tKzH0U3bnW+DXcs6m8RfTz+FaCbT45vlJ+dip+ZEb7e5c7bi3qxaOcfJQ9H5t280nlb5rF5xe+32yr19Kz2LTn0ei5h09JnJprfIa60R9HDEfNtafZv4eKwykuLdp3ImDjPC+I8M1NYth1untivE+3aJrP1WiPvVGHJ6O8W8/Bd58XpaTXu4ePU+d2J+yfGPhPl9yTkPaNyTqOEcT4hw3U0mmbSZ70ms+rH1TGOfhNdpceamJ1jVi7RpOksWbGdw/sWnmDmnR1vTfS8P21uomY+bMVn6HsmZnbwa5b+uPGY8Yj2zHq+tcZ6NjsPjg3LdNfmptq+L2jU72j51MXqx+2I3iZ2RNqyblJ7Z4QnbFh9JkjsjjPubdYNPWtaxXeKxERSImdoiIiIj6kr09W9vH3y8kOlu9x2y4+W+WuJa+cnRnyY50uhnfx+XyxatZj4eM7x7mdrWbTER1tXa0VrMzyiNVZXpFO3KOO8yZNJgvedHwqfkKR1TNfl6zte23l4zv4tkvRFx/wCW8xeM/wD8unlO35Mqx9fr8mfLkz5pm2bNknLnmfyr2tvM/es59EV/k3mL/aqfqrzaKRTBux1afOGb2XJOTad6evX5SsJ+T98/bLgPb1T/AAd4/wCNv8nZ/XP8SzsCHAO3v8XeYP8Ad2f9Sykp60eMfNpL+rPhPyfPhij5tP536yaGP6NPjb9d333Ou7Zl5v41TT2i0cP0dq5uJZY32rFZ3jFv6/ldunaGqtaK13p5QxVaTe27XnMuS90fuQcR5uyxq9R16Xg2K+2XNMbZNRMePRiiduqkx4dULauyPsG4Ly3paaXhekw46xt15JrW2TLbbxvNp8Y3nx2hy/ljlnTaDTYNJpMVMWn09Ix4aVjaKxWNt/D1z57y9qzmbaLZZ7I6o+rV7PstMMdtuufoxFPj9snRHsh4NdxHHhpbJlvSmOsdV7XtFYrEevefB0xx3voclaPLbDn4/oK5Kztau97TX47Y5j7JR61m3KJnwhKtetecxHjMQ7u6IeHU6GmSs0vWl6z5xesXrPu2t4ODdn3bzy/xveOFcU0ertEb7UvtO3wtWszt7Ihz+LPkxMc+D7ExaNYmJju4tLu9R6OzhvHMWfW8EpTR8V8bxSNq4dTPjMxb1U39yqLnbknW8I1uo4fxDDfDqsF5rkpaJjfaduum8fOxz59UPom4jr8eHHkyZb1pjx1m+S9p6a0rWJmbTM+HhEb7KdPSGd4DgvMnFcOPhWGs30Uziza6Ij++YiduiNvHpifattjzXmd2dZjt7FH0hgx1jfjStuzt9zUfd3/3Tu6Tr+ctd4RfDwvBaJ1upmPDbfxx49/C15j1OtOxvsv1PMPGNBwnSxM5NVljr/1cMTHylvdNa7r5eybsu0XAOGaThehx1rh02OKzMRtbLeI+dkvPnNpnfxn3JW1bR6ONK+tPwjtQ9i2X0s71vVj4z2fV6/sg7CeDct6PHpOF6XFjrWI68k1i2XLbbxvNp8Ym07z0x/wdhRT4/pZmXTvbx3qOAcqY4/slqa/hV6TfDpKTE58sRPnEbfN/nKH8V565mWmma469VYj3Q7g6I9kfYzNI/wDrw/Qrt1vpedDGWIxcI1U4Orx6rV6pj7o3bI93vvrcu82Wrp9Ll/BuITWbRo88xGW9YjxtWdumdvZ5+TrbZ8lY1ms6ONNpxXnSto18vm7V7ReyzhnHNLl0fE9Lh1GHJG09VY66/wCtF/pRMefgqF75Pcp1fKWonWaKMmfgme0/JZIje2lmfH5PJt9GI8omfNdPEvR858n6Xiej1Wh1mOuTTarFbHmraImPnVmOuN/K1fOJj17PWDPbFPbHXDxtOzVzV7LdU/XufOhEu9O5FH+GvAPjZ6HvNdhublXj2s4Xki3yPVObh1p/9TTzO8Wmfb6vqe+7kM/4acA+Nl/e0WxzMcprPyZnFWaZYrPOLRHxXqRj98/bJOL32+2U49bLLNm6u5I7unBOF8R4lxbBpqW4hxHL8rqc+SIvaP8AVrv9H4x4uzox7fv4fZ5JTLi/O3aZwvhGKc3EtbptLj/jZLx+iIm33PUzNp65l4iK0jqiPJyfoj2QTSP/AK8HROl77/I2TJGKvMOg65npj/GRFp9kT8l+nZ3JwDmTS63DTPpM2LNhvG9L47RaJ+zy+t9tS1ecTHjEwVvW3KYnwmJev527PuH8W02XScQ02LUYMlem1b1ibfGLT41n4Kne+p3Ec/LVsnFuExbPwW9t8sbb5NDaZ+jMRv8AwEfx1wr13MHAcGs0+fS6nHTJp9RjnFnpaN63rbw2mPdvu7Yc9sU8OXXCPtGzVzV0nhPVP86nziRP7+33pO5u9v2F35W5h1ugrE/guS3y+ittMRNMkzaMdfdjidtnTEy0lbRaImOUshek0tNZ5xOhMuzex3sI1vHckXrE4tHW38Nmnw3j1/J7/SePsK7IcnHddGO28aTBMX1d/d6qx+d5SsC4FwLBpMGLT6elaYcVYrStY2jw9fxnzYP7SfaP7h/6fZ9JzTGszPGMcTy4ddp5xHKI4z1KXbdt9D+CnrT/APX/AC412edkPDeD4oppMNJvt8/LesWtkn+N477b+5zWI+Pw9X2MsbvxLNnyZ7zky2te087WnWZ/nky1r2vOtpmZ7ZOmPcdJv+/ib/H7JcHhia7+fjHsnxj7J8HWXah2A8N4xS82pXDqdp6M2OIjx9UTEeG0+12cJWzbVl2a8ZMN7UtHXWdPPtjung6UyWpO9WZie5Wr2mdlOu4JqJwaunzLT/A5a+OPJHqjfy6/c5J3Xu1aeXuZeEcSmb/JVzRg1FYmY64zz0fO284jffxbxc/chaXi+ky6PVViaXiei23zsVvVes+cTvsrt7QuRNTwfXZ9HniYtjmbYLfx67/Mvv658pfuf2f6er0pjnFl0rmrH4ojlevLerH/AOo6uE8pa/o/bvS6a8L10nx74/d9DXDtXTNjx5cdpmmSlclJi0zExeOrw+p+i+L3z7/GfJrT6P7terxvlPh9b369VwysaPWePjNo6prM+vy8Pqhs1MJN67tprPVL9Jx3i9YtHXGql30jfZLbg/NebUVpFdNxev4Rpun6MdP04+PU1WrK4n0l3Y5bi/LNtbp8UW1fDMkZa22+dXBvM5NvdtH3qdYtE+MeU+Mfo/Tu0Oy5N/HHbHCf54MrtuL0eWeyeMe//LM+z2t9/RR9kn4TxTX8czY98OlxRh0kzH0c2/jaPfEbz4NCcWG17RWkb3tPRjiPO1pmIiI987rzO5J2TRwHlXhmC1enPqqRq9TExtNb5IiemfhH6XjbMm7j0654fV06Pxb+TXqrx9/U77pj8I8Z9/jKGfBExMW3msxMWjedpi0bbT7vF52JhnmqUSd8/sovwDmviukmu2LPb8NwWiPmzXUb3isT5b138YdHwtK9K72RW1PDOH8ew0jfh+To1tojxml4iKb+2InwVa/s3+3xabZsm/jievlPuY7a8Xo8kx1c48JJWXeid7IIph4pzBnxz8pa34NobT4b4rVnrmJ9m8beHtVu8F4Vk1WfT6fFWbZM+amKkRvMz12is+Xs3X793vs2pwLgHCeGViItg09Zy7eG9rx1Tv74mdvqR9tybtN3rt8kro7FvZN6eVfn1OxYxR7bfbLr3t67RMXA+BcV4jltavyWmvTD4zG+W9LVpt4+cWmJ39zsWyuP0r/bFNMPDeX8GWP4ffPr61nxp0/Qi3x8/FUYab94r5+C+2jJ6PHa3dw8VbvG+M5dXqNRqs0zbNqctsuaZmZmbTbfxmfGfB+NGPak1EMZM6gD6+AAAAAAM1SRqkCAAAAAAAAAAMfsla96J3V47cv8UpXbrpqY+U9vjW2yqGW2fo7u8Zj5c43fR63JFOG8U+bltbyx5vLH8ImZQ9qpN8cxHj5J2xZIpliZ5cvNcw4P208manivBeKaDSZZxajU4L0w3idvnTWdqb+qLeUz73MtJqq5K0vS0WrevVS1fGtqz4xMTHh5PNMM5E6Tr2NbMRMadr56O0zsa4xwDVZ9JxPR5sWTDe3XlilpwW+d9KMu21t/Pfdwqsxby6b/APyj730Y80cl6HiOK2HXaXBqcU+E0y0ravw8YmWr/a76NTlbi3Xk0eO/D9Rt/Bxp/DBv/rV28vrXOPbqzwvGnfHGFBl6NtHGk6908J+ipXlbtL4pw3Hq8Oi1mfFi1eGdPqsfXacd8d/Olab7U39sOMRXaIj2RtH6W0/bv6PPmXl+uTUafH/ZDRUibWvgievFSPyrx57Q1ZyUmJmJiYmJ2mJiYmJj1TE+MfWsaWrbjXSfBU5aXp+G8THZr+zmHY9yTfi/GuEcPrXqjUazHXPH/wCqbR1fdu+gblngGLRaXTaPDG2LS4aYMUR/FpWsR+j9Knz0Y3L9NTztgvkrFq4OH5ckRPlFojeLfGNlyuKfDdT7dfW0V7I181/0bSIpNu2dPL/aVp+/w+6VSnpJO8HreK8YvwHRzqY4Zw2011NaRaIzamN95mYj5+OI8OmfBbY4hruyXg+bJky5eHaK+TJbqyXtjpNrz7ZmY8Z96JgyRjtvTGvYnbRitlru1nd7e/ufPZHDM3+ayx8KWiPugtwzP/ms0/Glpj7Jh9Bn/gvwP+S9B/VU/wCU/wDBfgf8l6D+qp/yrH7/AB7PxVP9Ln248lbvoxe3TWaHi1uXdV+EW0fEKzbQVv1TXTXp422mfCK28ulavWf3+EuK8J7LeE6bLjz6fh+jxZsf+LvTHWt6b+yYjeHK1bmyRktvRGnat9nxWxU3bTrpy8Ox6TnPlrFr9FrNFmrFsWpwXx3ifGJm1do+ydp+p8/HafyZk4TxfifDskbX0mqvWfdW1pmsfZMPofzR5fnR+lSR6Qfl/wDBueuOXiNq6qcWSPZvFI3mPjMbpuwW/FNe2NfJX9J0iaVt1xOnm389F/8AiTh/3hm/Wxtv2oHov/xJw/7wzfrY236Fn/Mt4yn7L+VT9MPS8282aXhuk1Ou1uWuLTabHOTPeZ+jWvj4e2Z8tlTHej9InxXjWbU6Lgt7aPhe8463rvGXUxEzHXvHjSLecbN6PSGTMclcX8/Gnj71JVI8KfmQsNiw1tG/PGddI7FZ0jnvWYpWdI01nTnPN+3V8Wz5bTbLn1OS0zvM5Mt7z/8AKZePHrstYmK5c9YnziuS1Yn3TET4x7nhFxpCg3pYmHP+wXtPycv8d4VxXHM/3tnrGSP41Mlorbf2xES4Cx/x8Pt8PufLRrGk9b7W01mJjnE6vo15V5hw67SaXWYLVth1OKuXHaJ3ieuu8/Z5fU9reP3+E7tHPRd9uP8AZHgmXgme8fhHCbdOm3ne+XFbeZn2zFZnb7W8kSy2Wm5aaz1fLqbXDkjJSLR1x8etVp6VLsMjTa3S8yaek/J6uIxcRn1RevhTy9sbK/4jbwX+94zsow8w8A4pw3LTrtfBfLpv/ex1tbHEfG0RH1qDuM8EzaTUZ9JqazTUabJbFqKz50vSZ+b9kLrYsu9TdnnX5dTO9IYdy+9HK3z63ZPdh7IcvMfMXC+H443x/LV1Gon1RTDaLWrPumI9a+rhXDMenxYsGKsVxYaRjxVjaIrFY22jb4NEfRW9iEaXhWo5iz0j5fiVpx6Tqj52KmPeLTHsi8+v2bt+ohX7Zk376Ryrw9/Wtdgw7mPennbj7upi/wD2VJ+lF7a/7I8b0/BcF99Nwykxq6xPzb55mZi22+29YnbdZX289qGDl/gfE+K6idq6fBatPbOS9dqbfzpifqlQTzTzFn1+r1Ws1Fpvn1OW2XJafGZ6rb1+yu0Ouw4tbTeerhHi49JZt2sUjnPGfB6yvq+Pj9y0D0RX+TeYv9qp+qq/9n7+uFoHoiv8m8xf7VT9VO2z8qfd81ZsH50e/wCUrC4cA7e/xd5g/wB3Z/1LOfw4B29/i7zB/u7P+pZQU9aPGPm1N/Vnwn5PnwxTtWs/nR/StMR96670fHY/XgnKmivkxxGs1++o1V9vG9bbzjifbEVn71NfI3CPwrW8N0228Z9TWkx7f4V9DHJfDK6fQ8PwUjauLSYaRHs6cdY/St9uvpWK9vHyUPRtNb2t2cI973jiPap2maLgHDNZxXiF+jTaSnVefXa35NIj1ze0xVy207K1fS0dqOWLcJ4FiyWri/x+srE+GWLVjoi3tiPP47qzDj9JeK+fgudoy+ixzby8Wq/eS733GubNXknJmy6fh8XmdLpcV7Uitd/mza1Zjr6o2naXQ9o38Zitpnzm0RaZ+ufMiP3+DLTVpFY0iNIY6+S151mZmX6eGcWz6a9cmny5sN6zFqzhvbFtMeX0ZjePcsX7mvpGJjo4RzTm3iKbaPW7eMxSP8Xk+ERt1z5q32Jhzy4a5I0mPf1w6YdovitrWfGOqW4/fU792p5kyZuE8JtkwcFx5JrkvWZrl19qT9KZjxrjj+L5TDTfaf3/AH82diPP9/XD1jx1xxpWHnLltltvWnX+dSyD0THZZSf7McdzY4m28YOH3mPoxMT8p0z7/Lw9qyuIayejw5erpOSuEbV2tmvkyX9+8z+xs4zu0W3slp79PJrNkpuYqx3a+fF1r3he1T/8d4FxLikUm+TBimuCseO+S8bVn+bPjt7lEfPXMfE+L63U8Q1/4Rm1WpyWyZL3radomd61pEx8ysRtG1X0K8d5f02sxTg1WHHmxW+lTJEWrO3tid4cZ/8ABfgf8l6D+qp/yumz564on8Osz19zjtWy2zzGltIjq7+18+n9jM/+bz/0bfsft4FqNdo9Rh1WlrqMepwXjJgyUi1bxasxMRNo8Zr4eNfWv+/8F+B/yXoP6qn/ACn/AIMcD/kvQf1VP+VM+/x7PxQI6MtH98eThfdH7Z78y8uaHiGato1NI/BtX1RtNsuPpi19p9u+7uqYer5e5Z0uhxfI6TBiwYurq6MdYrXefytoiPF7VUWmJmZiNI15L2kTFYi06zEcZ7WhHpV+yimq4RouNYqR+EaPN8lmt6/kZ38Phvv4NHu5D+OvAPZM2mPrWzd9DgtNVybzLW8RPyWitlp7prMeSpjuP/jny78J/wCK32e2uG0dmvy1Ue1Uiu0Vnt3Z+Oi9iPWxaWY9bx5/yfzoUy/aVd+Lv2xy5N+DcGmL8YtH8Pknxroon7pvt47KrOcOfuIcV1GXVa/VajPmyzveb3tOOd/ZSZ6ax7oh3B38o/w65n/2in6lXQFWk2bFWtImI4zETMsjtee972iZ4RMxEdXBjoj+Ljj3xWIn7XcXdy7y/FeU+JYNVp8+a+ltelNdpr3tfHlxzbaYrEzMUmseO8ex0+xEef5tv1ZSbVi0aTHBEre1ZiYmdYfRfyVzbg4notJrtNaLYNVhrlxzE/xq7zX+bO8PeNX/AEcHE75+ROBTkmbWx2zY4mfOYi9tvs32+qG0LK3ru2mOyZhtcdt6sW7YiVePpbeRvlOH8C4pWsdWjy3x5bRHjaMkRtEz69p381YVMNrWitY3taYise2bT5feua9Jpw+uTkXic288epwTSfXHzvKPiql7CuXI1vHeHY7RvTHkrlyR7axELTHtEYdlvltyx1tbyjXT38mX6U0x3m//AB3vKP8ADdTsJ7PKcJ4VpsURHyuakZs1vXPXET0z7dve7GhjoiJmI8KxO1fdEbbQzL+btp2i+0Zb5rzra9ptPv8Apyfl97ze02nnM6sWt+/s9/whr72wd67TcOyZNJw+I1GppPTlvv8AweOf9WfK2z9fet7UcnDdBj0umvNNRrJmlrR9LHTb1ezqjwaOTMzvv4+O8++Z8538/Hzfof2Y+zePaqRtW1RrSZmMePlFtOE2t16a8IiOfOeHCbnYNirkj0mTjHVHb3z3O1eMd53mLPaZjWfJ1n8mKx4fW/Xy93q+P6e0Tl1Fc9I/JmsRv7t3T8QbP0+eh9hmu5Oz4dP/AI6xPnEa+/XVfTs+KY03K+Uf7b9djfeN0XG5jT3iMGtiN5xzPzb/AJsz9K3+rDuGJVV8O4hlwZceXDe1MuO0Xx3r4TWY8fV7fLxWI9hvaRHGeF4NRbb5ekRj1Ee+u0dc++2278k+032ersGm0bPr6K06WrPH0dp5aT11nq14xPDXjDObfscYvx09WeEx2T9HYcw6E72vZtXW8NniGOv98aGYnw+lkrPqn1zFXfj8PGNBXNg1GK8RNcmC9dp9czWYhkOjtstse0Y89OdLRMx215Wr741hXYcs4r1vHVPw648mvfoyO2evCeYLcMz36dNxSvTSPVOo/Jjby39S4Cns9nm+d3FxDNwXjFc+LeM3Ddb8vT27xk3iPsX3djnPuPjPBuF8SpatvwnTUvl28enJ016qz74nfw+D+g9rrE7uSvK0R8tY84fr/RmbepNezjHhP8+L3vN3LuPX6PWaLL/i9Xgvp7/DJS0b/Vvv9T5/+2Xs9ycE4zxThl4mI0upvTD78fVMxb4PoXvHgqy9LB2SRpuIcN4/irtj1tfwPN0x4deOOrrnb1zHrl92HJu33e35w6dI4t6m/wBdflP+WtHdA7Jrcw81cI0MfQxZI1+afV0aaYvNZ+MR5Svg02KKxEViIrERFYjwiIrG23w8FfHooex6MGi4jx/NSPlNVf5LQ2mPGuOImLxHumfD61hlYeNsyb19OqvD39b30fi3MevXbj7ur6sj0nNnOGk4bp7arW5a4sFb1x2vbwiLZJita/G0zEPbafPF60vX6NqxavwtG8T9ceKDostepwftw7O8XG+CcV4Zmjeuo095j8+ld6f/ACiFAPM3Asui1Wq0maNsumzXx3j2dNpiPufRxlj7PX8PYpo9JR2T14PzVfV46bafi+OdX4R8ytqz0zWPVv1R5LTYcmkzXt4x7lN0li1rF46uE+Evz+jh7IbcY5swau1YnTcFr+E6mLRvW85N4pHj4TMWnfZc/jj/ALfD1fc1B9Gr2Mf2H5Zprs1NtZxS85MltvGcO8Tjj7J+5uBEI21ZN/JPZHBL2LF6PFHbPGf2+D8vE9fTDiy5ckxXHix2yXtM7REUjq3ndQX3k+1C3MHMfGOJzMzTJnthwxPlWuG01jaPVExG/gtU9In2yxwPlbUYKWmNTxeZ0eHadrV8pm0fVG32qXpmZnx8/wAr3z47z9cpuwY9Im/bwj91d0nl1mMcdXGf2+HzIhkFuogAAAAAAAGapI1SBAAAAAAAAAABiPD9/L3x7J97LEA267sfpDuLct0w6DiFZ1/DKzFaxaf4bT19sXnebRHn0rIOyPvkcrcwxWNFr8dc0xHVizzGGa29dYm8xE7e1RNekx57/XEx+nzSw6i1bRetrVtX6NqzNZj+jsg5dkpfjHCe76LLDt2THGk/ijsn9pfSFp9XW9YtS1b1nytWYtX7YmYeaJiVEHZb3yOa+A2x/gvEc2XBSYn8HzTNsVoj1Tv47epZb3Pu/dpOb724drMddLxjHTrikTPyWpiPpTh38ZmvnMKrLsl8ca847vousG3Y8s6cp7J+ra7Lhi0TExE1mJiYmImtomNpiY22mJ9iv70gHcj0mo0eo5i4JgjFrdPE5OI4MddqanH4b2pSsbVtXfedo9SwWsvzcR0dcuPJjtETXJjtjtE+MTF69MxPt3jePrR8WScdomPf3pWbFXLWa2909k9qof0V2pivON6T524dm290xE71+ryW/YfKFOvY5rsHKParm09fm4K6q2ir7I/C7RO33ri8c+cez/7/AOKVtnG8W6prGiHsHCk1662nUy5YrFrWnaKxNrT7IiN5n6odb6rvG8t473x34ppIvS3TeJyV3iY9U+LsTV4IvW9LfRvWaX/NtWYlRV3y+xzLy/zRxTBkpaMOry21mit1W2titM+vy3id42c9nw1yzMTOnY67VnthrFojWNdJ7lxv9styz/Kuk/rK/tP7Zbln+VdJ/WV/aoAisey39KzPRHst/Tsn/cK+1Kr/AKpb2Y+K/wC/tluWf5V0n9ZX9p/bLcs/yrpP6yv7VAE1r7Lf07P0abht8kXnHjyWikdV+mbzFY/jTMbxEfE+4V9qfg+/1O3sx8V+t+8ryz4f+a6Tzj/1Ke34qlu/7zvpeJ8367No8tMuDHWlK5KzE1vPT47THhO0ta+mvsn+nZPHHjH7d/vlIw7LGK29EzPDRF2jbZzV3ZiI46rjPRffiTh/3hm/Wxtv2oHov/xJw/7wzfrY236kz/mW8ZaHZfyqfphrN6Q38SuLfmqS8flT8yF2npDfxK4t+apLx+VPzIW2w+pPjPyhR9J/mR+mP3SAWaoGJhkB3D3S+2LJy3zLwzX1v04cl40ms3+j8jlmItaY8t4/jSvd4RxHHnxYs2G0WxZqVyYbR5WraImLfXvv9b5v5rvvHlv4b+z17rlvRy9u08d5cxaPPaPwzhf97TG/jbDTaKX9vl4b/BUbdi4ReOrhP7L3o3NxnHPXxj922l49fs8fulVR31+6Vny88cOjQY7fIcyais5rxHzcefq3tvtG1YmN/FazEvxa3g2DNfDky46XyYbdeG0x87HPtrPqlW4cs4p1jsmFvnwRmruz1TE/X4PV8hcp4eG6DRaHBStMWlwUxdNYiI6qViLW/nTvO/vcgvbZmIcY7SeecHB+G67ieomIxaPBbLb/AFto8K/GZ2ceMz3y78Kx2REfCFdnpWO3Kcmo0XLOnv8AMw1jU8SiJ3jLGSsdFJ29dNt/FXdH/b7PJyftP56z8Z4pxHiWe9r31WovekzO8xitaeinwrG3g4zDUYcfo6RXz8WN2jL6W828vDqPZ+/rhZ/6Ir/JvMX+1U/VVgez9/XCz/0RX+TeYv8AaqfquG2flT7vmkbB+dHv+UrC4cA7e/xd5g/3dn/Us5/DgHb3+LvMH+7s/wCpZQU9aPGPm1N/Vnwn5KH+xzV1xca4Fktt001sTbfy/wAa+hHguWLYNNaPK2DHaPrpWXzi8P1lsU4clfpY8kXr/Ny7/wDB9AvYHztj4rwDg+tx2ievSYsd5j+NjpWto+Pgtdvr6s+MKXo23G9fCXYOWPD7P0qm/Sx8MvXmLQZ5ifk8ulpSk+qZrXxWzNSvSI93bJzHwL8K0WO2TiXC982npWN7ZqbR119/TG9o+tC2W8UyRM+Hmn7Zjm+KYjnHHyU01ZS1GC2O1q3ia2pM1vWfCa2jwmJifHwneEIlpWQZN2Js572KdjHEeZuJ6fhnD8V73vP98ZIj+D0tP87knyirzMxEazyeq1m06RxmXA90Z/Y7h7wndd41yjqZxa/DN9LO3yOrx1mcF5n8nf1T8XT8ef7+wraLRrE6w+2pNJ0tGkry+4zqa35M4Das7x0Wj64mWwLS70XPaFTWcrTw+bb5uG5rdceuK5PGv3Q3RZjPGmS0d8tls9tcVJ/4x8ODjfOPaFw7hVMeTiGpxaemWenHOS0Vi0xG+0b+vxcT/tluWf5V0n9ZX9rrTv8A/Yxbj/K2rjBS19ZoP750sRMxMxWI6/Lz+bH3SpOyYemZiYtExM1mJtbeJr4T8PH2pWz7NXLXXWddeMIW1bXbDbTdiYmNYn5r/f7Zbln+VdJ/WV/af2y3LP8AKuk/rK/tUA9Eey39Kx0R7Lf0rJP3CvtShf1S3sx8V/39styz/Kuk/rK/tP7Zbln+VdJ/WV/aoA6Y9k/07PPqOH2x9M3x5KxeN6dU3jqj2xv5x8D7hX2p+D7/AFO3sx8V03ea7w3L+blbmTFp+I6bJmy6C+PDSt62m9rbbRERO8qyO5BP+GnL317/AHuiorHqif6Vp/S717kP46cA+NneuCMWO0ROusT8kadonPlpMxppMR8V68etDN+T+dCcetDN+T+dDPNUo37+f49cz/7RT9SrX+GwHfz/AB65n/2in6lWv8NVh9SvhHyYnaPzLfqn5skev8236shHr/Nt+rLs4Ln/AEZ34icI/wDdzfrS2sap+jO/EThH/u5v1pbWMrm/Mt4y22D8uv6YazekQpE8jca3j8vFP3qxO5no4ycwZ94ifk9DN439W0R4x71nvpDfxH43+dj/AEqte6PxaMHMHj/62m+Sj4zEOO3xM9F7VFefo7/+P7ast076t9P/AG/3b30nwj3x/wADJ5T+/sZiNvD2eDF/KX8+vy9o13yOKWvx6cM/Rxaalq/GYdFVbEd9Pl22PimDW7T0ajFGKLeqZrHk13q/pD7PWrbo7Zt3lGKsT+qOFvi2+xzE4aaezHn1sgNEmMTDa7uO8StMcawT9DH0TX62qEtw+5Py3bHo+IayYmI1VorT39Hmx/2stWOjcsW65pFf1b9Z+USrekJiMFte7Tx1j9tWzTHTvNY9toj7ZZQvfbx/i/O/o+L+fGOVx9venjFzHx2keVNTG31wsC9FB2vTm0Gv5ez33nR3nVaTqn51vlZibVjed5iu0eCvLto4jGo47xnNE7xk1G+/t28HK+6j2sTy9zNwjiFrWjTxmjFq6xPheuWeiN/dG8S/pvBim2xYqz60YcXnGOur9K2DL6Kccz7NYn/tiJX21l0r3uOxqeZOWuJcPxY621fTW/D5n8jL10ibe75k3dxcN1tMuPHlpO9MtK5KT6pi8dUfc/Sqa2msxMc4ls7Vi9ZrPKY0dfdg/ZpTgHAuFcLrEb6bT0jNMevJNd7/APymfsdg7iGW+3n5ecz8NpfJnWdZ632sRWIiOUcGg3pVu2CdJwzQ8DwW2za7JGoybedZwTFqTP1+P2NgO5V2vxzBytwvUWv1anS4q6TXT7cuONt/rjZVF3zO2G3MPNPE9VW0zptNknSaavqrOCZpaY/OmGw3oo+1y2m4pxDgObJFdPq8f4Tgi0/SzR+THvmu62yYNMEdsfi8+fw+Skx7TrtM9k/hj3cv53rU5hrV31u7hfmvQ8LxYKVnU4OI4pvefydN12nLX4THT4NlKT4Rv5+v7GVXS80mLRzhc3pF6zWeUvU8q8v49DpNJpMUbY9NgphpEeW1K1jf7t3tL+z2/wD3/wAEnAu3HtBpwXgfFuJXvFJ0+lyTgny/hppeKRHvm23h7nyIm06dcy9TMVjXqiPkqv8ASW9sf9l+ZJ4fhydWk4XT5PaPKuePpfW1Bh+7j3Hsuu1Op1meZnNq8ts+eZ/jWtM/8X4d2pxU3KxXshis2Scl5tPXLIx1MuriAAAAAAAAzVJGqQIAAAAAAAAAAxMthO5d3as3NnG8FclZrwzRWjPrsu3h1U2tXB//AG7bfW1/0uHrvSm9Y671pvb6NYvaKzafdWPnfUvT7n/ZTwngfL2iw8My4NT8rjrl1mqxzW0Z8lq7zWZiZn+D36YiULas3o68Oc8I7u9YbFg9LfjyjjPf3OE94f0f3AeY8OO+lrXh+uwY4xYM2OsRj6a+ERekREXt5fO82gHaR6ObnLhmbJGm0lNfpqb7Z8d4rMx7ejfqjfwXUsdH77zt9m+yox7Vkpw11jvX+XYseSddNJ7Y+j5/Mvdw5ljJ8lPCtV179O3Rbbf47bfW3Z7gHcm41w3jGDmHjWL8EjR4710GCZi1s/y9ZrNrRv8AMiImfNZP8jHsr/R/7pxX9/38vqdMm22vWa6RGvNxxdH0x2i2szpxjqKV2j65n7Zmf+KObJFYmZ8oibT8K+Kczs1v76ned03KvBs9aZIniusx2w8PxRMTak2rETkvETvWm2+0zHmhUrN5isc5WF7xSs2tyhVP3nObOrnXj3EdJaOrHr65tNaJ3j5TDaPXHsmJXDd1btswczcv8P1+O8Tnpjrg11d46q56RWtpmPOImd5ifeoa1WptlvkyXmZvkyWyXmfObXmbT98u++5/3qdTydxOt7dWTheptFOI4Y3+ZWZ/xuOPLrjzle7Rs+/jiI515fRmtm2rcyzM+raePd2SvMdK95/uwcO5y4dOl1O2LWYd7aDVREdeC/st674p/iOx+Q+f9BxjR4ddw7Piz6bLSLVtS0T0bxE9FtpmYvXymJ9cS5GoomaTrHCYaa1a5K6TpMSoo7Ye5fzTy9ly/hGhyZ9LF5ri1OCJyfLRE/S6KbzTePHpmHUePk7X2t0RotdNt9tvwfLv+q+jDJhiY2mIn4x1R9ky/FXgGni3XGDTxf8AjRipv9sRv96yrt9ojjWJ9+inv0ZWZ/DaYjs01/eFKXY13C+auPZsE20s6LQ3mPlNVm8Jxx5/4udrWnb1RCzrsS7l3AOX+FZ+H/IU1WTV4+jiGfJWJtm3iYn5PeJnHHr2iWwNccR/28I+zdm0xCLl2m+TujshNwbHjxcdNZ7ZUu99HuXarlTVX12irfNwTUZJtivETM6SZ8fkr7eVa77dctV6T4wvQ73PbpwLgPBdbj4vGHUX1OG2PDoZ6bZM82jatprvM1rWdp6lHPEdVXLmy5KUrjrfJa9KV8sdbWmYrH5seC32XLa9PxRy6+1Q7bhpjv8Agnnx3fZXB+i//EnD/vDN+tjbftQPRf8A4k4f94Zv1sbb9SZ/zLeMtFsv5VP0w1m9Ib+JXFvzVJePyp+ZC7T0hv4lcW/NUl4/Kn5kLbYfUnxn5Qo+k/zI/TH7pALNUAAMWbIdwrty/wDx3mjSfLW6dFxOY0uttP0cMTPzcm3tm20NcEtPmtS1b1na1LRes+yaT1R97nekXrNZ64dMd5paLRziX0h6XPF61tXxraItSfbWY3ifrh5mvHcd7bY5j5Y0GbLkrbXaSkabX138aTSJim/r8axWfqlsOy16zWZrPVLbUvF6xaOUxqja20Sr59Kt25fg2j0fLmmvtqNXP4Tq9p8PkKzMfJzt5TPntLfTmTjmPR6bU6rNMRj02G+e8z4RtjpNtvjO231woO7w/a3k5k49xPit5t8nmz2jSVn/ANPFWenpj2RPnt70zY8W9fe6q/PqV3SGbcx7sc7cPd1/R1xER6vL1fBkgaFlj2fv64Wf+iK/ybzF/tVP1VYHs/f1ws/9EV/k3mL/AGqn6qDtn5U+75rHYPzo9/ylYXDgHb3+LvMH+7s/6lnP4cA7e/xd5g/3dn/UsoKetHjHzam/qz4T8nz4Yp+bT+d99phZh6LLvEY5w5+VtZkiuTHM5uEzaf8AHRO85Kbz66+ExHuVn4vo0/nfrPccqc06nhur02t0eS2PUafJXJhtEzHjWYnpnb8m220tLmxRkpNfLxY/BmnDk3o9/g+jWLF67/v93wax9z/vnaDm3R4sGovjwcaw1impwWmI/CJiP8Zi3mOqJ8/Bs5Fv+7NXpNJ0nhLX48lb1i1Z1iWnneV9HNwjmLNfXcOyRw7iN5mct4r1Ycsz4/QjaImZ/KhpfzP6MfnLT5JppsWn1dInaL/K0x7x7dpn7lymyM449/2z+1Jx7XkpGmusd6Jl2LFknXTSe7gqe7MvRUcd1V624xq8OhxRMTkpXbLa8eukTE7Rv4+MrFOwnu8cH5U0caTheCK2tEfhOa21suefDztMb9G/jFN/B2dFP38Z/Sk8ZNovk4TPDsjk6Ydlx4uNY49s8Zcf505G0PFdJl0WvwY8+my1mt6XrE7bxtvTePm29loVQ98L0fWr5ejU8W4NP4Rweszkz47TEZNBTfzmZ8ckR4R4e2FuXE+LYdPiyZs+SmPDirNsuS8xWlIjzmZmY8FUff478P8AZy+TgPA8kxwvFea63UVmf79tHh8nX1Tg/wBZ22Ocm9pXl19n+0bb4xbmt/W/t05/67XB/R2dvlOX+YY0upvFNBxfbFnvPlTJ5Yv6U+tc5jyb+UxPr3jxiYny29vg+bjFkms1tWZrNZi1JjzpNZ3i0e+vqWu9wvvwabiml0/AeNZ64uKaekU0ebJO2PWY48IrNrTEfhER4dPr/TK2zBM/jr7/AKonR+0xH/TtP6dfl9G9WbFFotW0RNbRNbRPjExMbTE+6Y8NlcXe99Gzm1Oo1PF+V4rbJnv16nh8zFItaZ3nJjtO0Vj19HrWP1vvt7/H99mZr+/l+hWYstsc61/xK4zYa5Y3bR4T1w+eTmvsf41wzNfT63h2sx5aTtaK4r3rH86ImJS5S7GuN8TzVwaHh2syZbeUWxZMdf6VqxD6D9VwvFl8MmPFePZalbfrbs6XhuPH4Y8eKkeytK1/V2WH3+dPV4+P+FV/S66+tOnh/lWb3afRe6nJkwa7mq0YsVLdX9j6Tve/T4xNskb7R5b1bQ96DuV8L5l4VTBpMWHSa/RYunhuXHStazFKzthyRWI6pvtFeufLds1Ff38/0vDqdTWlb2vMRSkTa9pmIrSIiZm0zO20REb7oVtova0W14xy7FhTZcdaTTThPPXnL52+fuQNdwXXZ+H8Rw2w6rBaa3pb17Tt1V3+lWfPqh2n3IZ/w04B8bO6PSVduHL/ABniGn0nDMOLNrdH83VcQpttaI/9Csx9OsfxpdL9yH8deAfnWXm9NsUzMaTuzw9zORStM8VrOsRaOPvXrx60M35P50Jx60M35P50M016jfv5/j1zP/tFP1Ktf4bAd/P8euZ/9op+pVr/AA1WH1K+EfJido/Mt+qfmyR6/wA236shHr/Nt+rLs4Ln/RnfiJwj/wB3N+tLaxqn6M78ROEf+7m/WltYyub8y3jLbYPy6/phrR6Qz8R+N/n4v0qb+zjmX8A4pw/VzO1MOetsv5vhC5D0hn4j8a/PxfpUk3/+/wB/istlx1y4L47crb1Z8LV0n5s90pWLX0nlNNPPVarotdXNTHmrt05qRlr8LxEw87X/ALp/ax+H6L+x2ovE6vSR8zefHJj9Va+3phsBEv516Q2K+xbRfBeONJ4d9f7ZjumH5dmxTivNJ6p846pcD7ZOzHHxvh+TSzMVzVibaW8x9C+3l/OnwV680cqarh2oy6bWYrYsuO3TaJ+jMR5Wi3lPV5+C0aYcX5y7NeHcVp0azT0yzEfNt4Ran1+c/W0v2f8AtHbo3XFlrN8MzrpHrUmec114TE9ce+OvWdse2zg/DaNaz5x4fRWZE/X8CZ/efBuLx/uacIm+9dfl08T5V+btHwft5Y7nPB6TFr6rLqYifGJ6dp93m/SJ+1/R0U3t7J+n0VtfOfw/Fdf1HDprrbw3Z+fJq92Ydlus43q6afT0tGPeJ1GaYnoxU38bRPlaZjw2hYfybyrh4do9Po8ERGPDWI32+lbbxv8Azp8Xk5b5U0mgxVwaTDTDSv5NYjeffMx5/CXt35b090/fpS8REbmGnGtOuZ9q08teyI4R381Dte2TnnSOFY5R+8/zgy432hc0Y+HcO1uryTtXHhtT671mI+9yOWove/7Wa5bV4PprxatPnayazvWZ9VfjX1q/obo+237XjwxH4dYtknspE8fPlHfLjsuGc2SK9XOfCGsmu1dsuTJktPzsl7Wn+daZj7niraYmJjzieqPjXxj72ILP6ViNI0huF3XcK7Xa8c5T0Fr36tVoYjTayN95rMRPTE/Gsfc2SVDei97Yo4Zx/UcJz5OjS8Up1xEz4W1FY2pHumfJbtjn2+frZvace5kmOqeMe9sNjy+kxRPXHCfd/hN0n3u+1enAOWOLavr6c+TDbBovHaZy3jbw98Rv5O6rT/2Vfeli7XPltXw3l7FPzNPH4bn2n8ufDon6vU87Pj37xHvnwh72rJ6PHaevlHjKvnUai2S98lvpZbzlye+15mbT8ZmXLeyHn2/BeM8K4nS01/A9VTJlmPXTq2mPfDh8T5z72NvVPlPn9Xj+lppjWNGOi2k6976NeU+YKa3R6PV45iaarT489Zj/APZSttvq32+p7hp/6NXtj/svyxj0We821vC8k483uxT/AIr/AOMbNv4llclNy01nqltsV4yUi0dcf7YtKu30sHbJOLS8O5cwz46ufwrVzE+NPkrT00nb+NvvtPtWE8T11cOLLlvMRTFS2S8z5RFI6p+6FC3ek7V7cw8ycV4h1zbDOacWl38q1xz0zEe6dkvY8e9fXqrx9/Ug9IZdzHu9duHu63U3VvvP1/tds9m3YPOu0v8AZPimupwng8zNceryUnLfPaPyMeGPnZPZ1Vh1PSPo+/JjrPwteIn7m3fHck25u5a4VasW4Xw/SYbaHH4fI75aVtkttPzMk7zPnuuslpjhHfOvdHZ3s9hpE8Z48YiI757e5wDF3fOC8Q/vfgXMddVxO28abQ59NfSzqto36q5MnTWu8eMQ6O4xwjNpM+bTailsefBktjzUmNppak7THvrv5W9bc3vi49LpOCaXPjjFfidOOVnT6/R1pXFp8O/horXx7TGePXR0l3s/n8Yw6jJWKanPw7TzqabbTG2ONskx7cnnvPm54rzPhOvPnw8NOHuds+KIjsmNOWunHx14++XSoQJaAAAAAAAzVJGqQIAAAAAAAAAAxMO1uxPvNcf5Wy1twzVX+Q3+fp8kzbBMevppMzETPtdVGzzasWjSY1h6reazrWdJ7lqnZD6VfhGr+Sw8b0uXR5doi+oiYnDafXMViN4htByn3o+VuIxWdJxbS36vKJtFJ+Hzq1UFbfX8fH9KVMkx5Tev5lpp+iVffYaTy1ha4+ksleFoi3wn4fR9F9OdNBMRMavRzE+MT8vh/wCZw/m7vHct8Nra2s4rpMcV89r1v5er5kWUC/h2X/Pav+vyfteO+a0/Stkt+fe1/wBaXKOj467T5O9ulOHCvHvlaL27elR4fpqZ9Ny5gtqNTMTXHq77fg+OfbNJjefarc7Qu0jiPHNZl13E9RfNqMszNpmZmtd/yaR5VrHshxr7vh4foZT8WCmP1Y49vWq8203zetPDsjkxEGzIkIrtfsG7zXG+U88ZOGZ/4Cbb5tPfe2G8evasztFp8fFYz2OelE5e4jFcfF6X4dn2iLZL/OxXt7Y6YmaxMqj9mPsn4xv+lFy7NTJzjj2xzTMO15MXCJ1jsnjD6CuWO33l7iEROk4no8kTtt/CVr5/nRVyfLzroKxNravRxEeMz8vi/wCZ86VM9o8r5a/m5LV/RKc67L/ntV/X5P2oU9Hx1W+CyjpThxrx7pXx8497blPhkXnV8X01Zr+TWeuZ29UdNZj72oHbd6VvFFM2m5b0lvlZ3rXV5um2L2dVa7RMe3xVrWvM+c2t+dM3/Sjs7U2KleM6z48kbJ0jktwrpXw5+bkPPfaBxDjOrya3iWoyZ9TeZmbXtMxTf8nHEztWvshx6vmyLCIiOEKuZmZ1lZz3A+85yxwPlTFoeK8Vw6XVxrMuS2K8W3itpp028KW3i20/Y2U/t6ORv5e0v2X/AOkox+qPriJPqr/RhAvsVbWm0zPGder6LTH0helYrEV0iNOv6rWO+n3rOVOMcq8S0PDuL4NRq8tYjFipFt7z8ZpXZVNj8q+6sRLP1R9kQykYcMYo0jXnrxQ8+0TmtvTERw04ACQjAADEsgNq/R7947TcscZz4eI5vkeGa/HM6nJbxpiyVjakzEb/AGxCyKO/RyN/L2l+y/8A0lGOx9Vf6MIOXZK5Lb0zMT3LHDt18Vd2IiY79fqs+79XfY4NrOXsnDeX+I01Oo114rntj3j5HHXbeJma1+n4xt7lYH7/ALfvZ+qPqiI/Qy74cMYo0hGz57Zrb1vDSAB3R2J9X7+uG/no1+8By9y/oeN4uMcRxaTLn1NL4a3iZ66xWd7RMVt5TtGzQRj6o+yJ/S45ccZK7su+HLOK0XjSZjtXnf29HI38vaX7L/8AScQ7Xu+dyZq+C8Z02Djemvmz6HNjw0iLb3takxWsb46x4ztHmpg+qv8ARg+qv2QhxsNInXWfh9FhPSWSYmN2vHx+qGP6NY/O++27yTDGzKyVEv3cB4/qNFqMOq0mXJh1GG0WxZKTNbV29W8bfN9zfTsG9KhqtJTFpOY9NbU0rtSNTh2rasRtHVfeJ6tvWr9Y2ccmGuSPxR9XfFnvinWs6d3V5L3OSu+byhxStJ03FtPF7bb47/MtWZj6M7128PLfd2lpee+HZKxfHrNHas+U/L4o/wD9PnTraY8t4/N+bP3PLGty/wCe1UfDPkiP0q+2wR1Wn38fota9KT/dWPc+hLj/AGw8F0VZtquI6PHEef8AC0tt/R3dBdqnpH+UuFUvGlzzxHPG+2PB4ePs6rViPuU0X1V588mefzst7fpl4/s+zx+3zeq7BWPWmZ+DzfpO8+rER8WxveS78XHebJvp5vOk4ZvPyenxT03tHszWiY649TXCI+7y9kfBnZlY0pFI0rGipvktedbTrJsnp9RbHal6WtW9LdeO1ZmLUtE7xasx5W96A9ubdfu9+k04pwfHj0fGsN+IaSkRSl6zEZ6RG0b2tbfq2hvf2e9+rk/iuPHNOJYsGa0RNsGX5tqT7N+nadvbvCjjZmJ28vD3x82ftjxQcmx0vx5T3fRZYtvyY40n8Ud/1fRNwztH4XqK9eHXaO9fb8tij7pnd+bj3axwfR069TxDR46/+9jt+rMy+eeusyR5ZdTHwzZI/RJfVZJ88mon87Le36ZRf6f/AMvgmf1Th6vHxXQdp/pFOUOFY7/I6r8P1Fd9sODwmZ9nVasR9zQHvH+kD45zL16bSzfQcNnePkqTtnvE/k3vX6VZjw2asfZ8dvH7fNjZLx7JSnHnPbP80Qc23ZMkaa6R2R9eZ/xneffPt+Ltzunc36LhfNXBtdxDPGDSYJn5fLMbxTf3OpGNku1d6JjtQqX3bRaOqdV539vRyN/L2l+y/wD0kb9+bkadv/PtL5x6r/8ASUZ/VX+jB9Vf6MK77hTtn4fRa/1PJ7Nfj9XcvfA500XFebuP6/h+euo0mozUtgy1jauSIrETMbxE7RO8b7Q6ag2+H2MrGtd2IjsjRVXtv2m09czPmG/n+baPtjYHp4Wj9w/vS8rcE5Q4bw/ifFsGm1mLJlnLhvFt6dVt48YpbeJjx33bDf29HI38vaX7L/8ASUY/VH1xEn1V/owrrbFW0zMzPGder6LWnSN61isRXhGnX9VrXfS71nKnGOU+K6Dh3F8Go1eWcc4sVIt1X6Z8fOlY2iPHfdVLP7/YfVH2RDKVhwxijSNeevFDz55zW3piI4acHtuUuas/DdXg1emtNcuG28beVo9dZ9u/k337Ku3fh3F9Pit8tTFq4rEZ8N5ivTb27z4Tv5q8titpjym0fmzNZ+2J3ln+megcHSlYm0zTJX1clYiZ09m0TprHXziYnlKo2nZKZ4jXhMcpj5T2rGu0Ttu4XwjDa+bNTJl2/g8OO0Wtkn2bx5NSufe9TxfiF7VwWjTafyx0r4ZIj32jzl01a0z5zefzrTafvnwY2Q+i/stsmxfivHpsntXiNI/TTjEeM6z3uWDYMeLjP4p7Zj5Q9tqeb9fkmbX1mrtM+3Jb9rzcO564jgtFsWt1cTHjt8pO0/GN3pBrJwYpjTcpp2btdPksd2OWkeUO/wDs673vENJauPiNY1ODeInp8MlffM+vaPFtnyr2mcN4hhrn0upw2rNYm0WtWk0nbxrO+28x5bqzNkq5LR5WyR+baax9kSxvSf2S2Ta538X/AEL9e5WJrbxprERPfEx36qzP0djyca/gnujhPu4N5O3PvI6ThuDLp9DeubXZKzSs1mJrp5nw65mPCWj2s1l82S+XJabZMlpvktP5VreMz8HjmZnzmZ98zvP2+YuuiOhsHRmOaY9bWtxveedtOUd0R1RHjxlK2bZq4K6V4zPOZ5z/AI7gkF+lvcclc0ZOG6/Qa/Fv16PU01FYjzt0Wien64iVz3KXf55Mz6PSZtTxnT4dRlw0vqcVotviyTWOqk7Y7R4W3jwmVJLH1V+yEXNs9cumusadiZs+1Wwa7uk69q8jV9+3ketL3rxzTXmlZvWsRfe8xWdqR/BR42nwjxjzhTn269pF+O8e4txO1pmuo1NraaJ/Ixb+Ffht4uB/VX7IZ2fMOzVxTMxrOva9bRtd80RExERHZ/shi0MiWgtnu4D3g9Pyzx+Y4hnjBwzX4prrMtt5rjtSszTeIifOdo3iJWXx36ORv5e0v2X/AOkox2+H6T6q/wBGELLstclt6ZmPD/SxwbbfFXdiImO/X6rZ+9z34uXcvLHFdLwPiuPUcR1mP5HTxii0TiiZjqtMzSvh0xMeG/0pVMb7+Prn51vzp8bT9cn1R9URDLrhwxijSPi4bRtFs0xNtI0jTgx+/wD3+rzd+8ndpnDOKaPh+h4tmvoOJcNiacK4rXxpSlvOmeseOSfVE+p0Gxt8J+Mbx9k+Drau840vNZ+cNmMGn4BwqkX1/MOPjmkpqZ1uPh2npbHGTU+cZr9XhMxPjLo7tK5/1HGuI6niOq2+VzbY6xHhGPDj8MeL40rERv7nGNvdWPhER+g2ea00nWeM+79nq+WbRpEaR2f7ZAdXEAAAAABmqSNUgQAAAAAAAAAAAAAAAAAAAAAAAAAAAAAAAAAAAAAAAAAAAAAAAAAAAAAAAAAAAAAAAAAAAAAAAAAAAAAAAAAAAAAAAAAAAAAAAAAAAAAAAAAAAAAAABmqSNUgQAAAAAAAAAAAAAAAAAAAAAAAAAAAAAAAAAAAAAAAAAAAAAAAAAAAAAAAAAAAAAAAAAAAAAAAAAAAAAAAAAAAAAAAAAAAAAAAAAAAAAAAAAAAAAAABmqSNUgQAAAAAAAAAAAAAAAAAAAAAAAAAAAAAAAAAAAAAAAAAAAAAAAAAAAAAAAAAAAAAAAAAAAAAAAAAAAAAAAAAAAAAAAAAAAAAAAAAAAAAAAAAAAAAAABmqSNUgQAAAAAAAAAAAAAAAAAAAAAAAAAAAAAAAAAAAAAAAAAAAAAAAAAAAAAAAAAAAAAAAAAAAAAAAAAAAAAAAAAAAAAAAAAAAAAAAAAAAAAAAAAAAAAAABmqSNUgQAAAAAAAAAAAAAAAAAAAAAAAAAAAAAAAAAAAAAAAAAAAAAAAAAAAAAAAAAAAAAAAAAAAAAAAAAAAAAAAAAAAAAAAAAAAAAAAAAAAAAAAAAAAAAAABmqSNUgQAAAAAAAAAAAAAAAAAAAAAAAAAAAAAAAAAAAAAAAAAAAAAAAAAAAAAAAAAAAAAAAAAAAAAAAAAAAAAAAAAAAAAAAAAAAAAAAAAAAAAAAAAAAAAAABmqSNUgQAAAAAAAAAAAAAAAAAAAAAAAAAAAAAAAAAAAAAAAAAAAAAAAAAAAAAAAAAAAAAAAAAAAAAAAAAAAAAAAAAAAAAAAAAAAAAAAAAAAAAAAAAAAAAAABmqSNUgQAAAAAAAAAAAAAAAAAAAAAAAAAAAAAAAAAAAAAAAAAAAAAAAAAAAAAAAAAAAAAAAAAAAAAAAAAAAAAAAAAAAAAAAAAAAAAAAAAAAAAAAAAAAAAAABmqSNUgQAAAAAAAAAAAAAAAAAAAAAAAAAAAAAAAAAAAAAAAAAAAAAAAAAAAAAAAAAAAAAAAAAAAAAAAAAAAAAAAAAAAAAAAAAAAAAAAAAAAAAAAAAAAAAAABmqSNUgQAAAAAAAAAAAAAAAAAAAAAAAAAAAAAAAAAAAAAAAAAAAAAAAAAAAAAAAAAAAAAAAAAAAAAAAAAAAAAAAAAAAAAAAAAAAAAAAAAAAAAAAAAAAAAAABmqSNUgQAAAAAAAAAAAAAAAAAAAAAAAAAAAAAAAAAAAAAAAAAAAAAAAAAAAAAAAAAAAAAAAAAAAAAAAAAAAAAAAAAAAAAAAAAAAAAAAAAAAAAAAAAAAAAAABmqSNUgQAAAAAAAAAAAAAAAAAAAAAAAAAAAAAAAAAAAAAAAAAAAAAAAAAAAAAAAAAAAAAAAAAAAAAAAAAAAAAAAAAAAAAAAAAAAAAAAAAAAAAAAAAAAAAAABmqSNUgQAAAAAAAAAAAAAAAAAAAAAAAAAAAAAAAAAAAAAAAAAAAAAAAAAAAAAAAAAAAAAAAAAAAAAAAAAAAAAAAAAAAAAAAAAAAAAAAAAAAAAAAAAAAAAAABmqSNUgQAAAAAAAAAAAAAAAAAAAAAAAAAAAAAAAAAAAAAAAAAAAAAAAAAAAAAAAAAAAAAAAAAAAAAAAAAAAAAAAAAAAAAAAAAAAAAAAAAAAAAAAAAAAAAAABmqSNUgQAAAAAAAAAAAAAAAAAAAAAAAAAAAAAAAAAAAAAAAAAAAAAAAAAAAAAAAAAAAAAAAAAAAAAAAAAAAAAAAAAAAAAAAAAAAAAAAAAAAAAAAAAAAAAAABmqSNUgQAAAAAAAAAAAAAAAAAAAAAAAAAAAAAAAAAAAAAAAAAAAAAAAAAAAAAAAAAAAAAAAAAAAAAAAAAAAAAAAAAAAAAAAAAAAAAAAAAAAAAAAAAAAAAAABmqSNUgQAAAAAAAAAAAAAAAAAAAAAAAAAAAAAAAAAAAAAAAAAAAAAAAAAAAAAAAAAAAAAAAAAAAAAAAAAAAAAAAAAAAAAAAAAAAAAAAAAAAAAAAAAAAAAAABmqSNUgQAAAAAAAAAAAAAAAAAAAAAAAAAAAAAAAAAAAAAAAAAAAAAAAAAAAAAAAAAAAAAAAAAAAAAAAAAAAAAAAAAAAAAAAAAAAAAAAAAAAAAAAAAAAAAAABmqSNUgQAAAAAAAAAAAAAAAAAAAAAAAAAAAAAAAAAAAAAAAAAAAAAAAAAAAAAAAAAAAAAAAAAAAAAAAAAAAAAAAAAAAAAAAAAAAAAAAAAAAAAAAAAAAAAAABmqSNUgQAAAAAAAAAAAAAAAAAAAAAAAAAAAAAAAAAAAAAAAAAAAAAAAAAAAAAAAAAAAAAAAAAAAAAAAAAAAAAAAAAAAAAAAAAAAAAAAAAAAAAAAAAAAAAAABmqSNUgQAAAAAAAAAAAAAAAAAAAAAAAAAAAAAAAAAAAAAAAAAAAAAAAAAAAAAAAAAAAAAAAAAAAAAAAAAAAAAAAAAAAAAAAAAAAAAAAAAAAAAAAAAAAAAAABmqSNUgQAAAAAAAAAAAAAAAAAAAAAAAAAAAAAAAAAAAAAAAAAAAAAAAAAAAAAAAAAAAAAAAAAAAAAAAAAAAAAAAAAAAAAAAAAAAAAAAAAAAAAAAAAAAAAAABmqSNUgQAAAAAAAAAAAAAAAAAAAAAAAAAAAAAAAAAAAAAAAAAAAAAAAAAAAAAAAAAAAAAAAAAAAAAAAAAAAAAAAAAAAAAAAAAAAAAAAAAAAAAAAAAAAAAAABmqSNUgQAAAAAAAAAAAAAAAAAAAAAAAAAAAAAAAAAAAAAAAAAAAAAAAAAAAAAAAAAAAAAAAAAAAAAAAAAAAAAAAAAAAAAAAAAAAAAAAAAAAAAAAAAAAAAAABmqSNUgR6TpSAR6TpSAR6TpSAR6TpSAR6TpSAR6TpSAR6TpSAR6TpSAR6TpSAR6TpSAR6TpSAR6TpSAR6TpSAR6TpSAR6TpSAR6TpSAR6TpSAR6TpSAR6TpSAR6TpSAR6TpSAR6TpSAR6TpSAR6TpSAR6TpSAR6TpSAR6TpSAR6TpSAR6TpSAR6TpSAR6TpSAR6TpSAR6TpSAR6TpSAR6TpSAR6TpSAR6TpSAR6TpSAR6TpSAR6TpSAR6TpSAR6TpSAR6TpSAR6TpSAR6TpSAR6TpSAR6TpSAR6TpSAR6TpSAR6TpSAR6TpSAR6TpSAR6TpSAR6TpSAR6TpSAR6TpSAK1AeR//2Q==" vertex="1" parent="1">
          <mxGeometry x="220" y="325" width="105" height="105" as="geometry" />
        </mxCell>
        <mxCell id="6xzkn71QcSRI05iNK7XL-3" value="" style="rounded=0;orthogonalLoop=1;jettySize=auto;html=1;" edge="1" parent="1" source="6xzkn71QcSRI05iNK7XL-2" target="6xzkn71QcSRI05iNK7XL-1">
          <mxGeometry relative="1" as="geometry" />
        </mxCell>
        <mxCell id="6xzkn71QcSRI05iNK7XL-2" value="" style="verticalLabelPosition=bottom;html=1;verticalAlign=top;align=center;strokeColor=none;fillColor=#00BEF2;shape=mxgraph.azure.user;" vertex="1" parent="1">
          <mxGeometry x="70" y="352.5" width="60" height="50" as="geometry" />
        </mxCell>
        <mxCell id="6xzkn71QcSRI05iNK7XL-5" value="" style="shape=image;verticalLabelPosition=bottom;verticalAlign=top;imageAspect=0;aspect=fixed;image=data:image/png,iVBORw0KGgoAAAANSUhEUgAAARgAAAEYCAYAAACHjumMAAAid0lEQVR4nOzdCXRN1/4H8F9GEUkkEUJJSlBFWqnUTM0h5al5DImpRaqKejXWWLQ6qOVfNdTQmoeKeYghoVpDVQQ1VwhKggySIImc/zq79IVG7j7J3We49/tZ66y39O2b87vT9559zj572xPRASJyJQAAM7MhoiQicte6EACwPLZaFwAAlgsBAwDCIGAAQBgEDAAIg4ABAGEQMAAgDAIGAIRBwACAMAgYABAGAQMAwiBgAEAYBAwACIOAAQBhEDAAIAwCBgCEQcAAgDAIGAAQBgEDAMIgYABAGAQMAAiDgAEAYRAwACAMAgYAhEHAAIAwCBgAEAYBAwDCIGAAQBgEDAAIg4ABAGEQMAAgDAIGAIRBwACAMAgYABAGAQMAwiBgAEAYBAwACIOAAQBhEDAAIAwCBgCEQcAAgDAIGAAQBgEDAMIgYABAGAQMAAiDgAEAYRAwACAMAgYAhEHAAIAwCBgAEAYBAwDCIGAAQBgEDAAIg4ABAGEQMAAgDAIGAIRBwACAMAgYABAGAQMAwiBgAEAYBAwACIOAAQBhEDAAHJydnbUuwZAQMAAchg4dStWqVdO6DMNBwABwcHJyosjISPLx8dG6FENBwABweumll+jYsWPk7e2tdSmGYS96BzUcHaiojY3o3RTYkUeZJGlcg4uLCwUGBip6TEZGBt25c4fi4+MpOztbWG2mVK9enby8vPJtExcXR1evXtVFLTExMZSSklLgfcjhsmvXLmrZsiUlJiYW+O+IVLZsWapUqVK+bdR6T8QHjIMDferpLno3BTY/NY2mpaRqWoP8YYiKiirU35A/MPKv66VLl9j/7tixgx4+fGi2Gl9k2rRp1L59+3zbTJo0iSZPnqyLWpo0aULR0dGF2k+NGjXo+PHj7EdBjyHTuXNnmj17dr5t1HpPhAfMD+kZ1MPFmfwdHUXvqkDec3OhTRkP6FRWltalFEr58uXZ9lROTg79+OOPtHfvXtqyZQslJydrWp+l8fHxod27d1OzZs0oKSlJ63J0S5VzMGGJ9yjpcY4auyqQFSU9ydvWsk5H2draUmhoKP3www9048YNWrJkCVWpUkXrsixKQEAA63JVrFhR61J0S5Vv1e2cHBqTpN9fUA87O/qxZAmtyxDG2dmZwsLC6Ny5c/Tll1+SjY7PiRmNr68vRUREsKtM8G+q/Wxve/CQ9j0Qf06goKo6OtB7rsW0LkO4ESNG0M6dOxEyZuTv709Lly4le3vhZxwMR9V+wdep99XcnWLhrq7kZWFdpbwEBQWxk3xgPt26daM1a9ZoXYbuqPptisnMoi3pGWruUhEPO1ua7+VB+jwdbV6ffPIJTZ8+XesyLErHjh3ZuS74H9V/ricnp9Ktx4/V3i232kWK0CfublqXoYoxY8ZQ9+7dtS7DooSFhdHq1au1LkM3VO803s7JodH3kmmpjk+q9nEpRsvTM+hclnYD2PLSpEmTZ/7t5OREfn5+bICZvNWqVYuKFVN2Hmnq1Kn4QpiZ3F26evUqffzxx1qXojlNzkrtffiIVqSlUy8XfZ5UtbGxoS883Kldwh3S08V1ngFictD85z//ofDwcCpXrpzJ9pUqVaKxY8eiu2Rm//3vf6lChQrUu3dvevTokdblaEazM5qfp9yn9Bw9fX2fVaOII00obryu0pkzZ2jmzJlUtWpV7tHBcsA4ODgIr83adOnShb744guty9CUZgFzLyeHPryn37ExsgFuLtSoSBGtyyiQtLQ0ateuHX399dcm28rdqrZt26pSl7V5//336b333tO6DM1oeuF+54OH1Dnhjq5v6b6t4xHIpty/f5+Ne5G7TKZufqtZsyZt3LhRtdqsydy5c9lo6q1bt2pdiuo0Hxl05FGm1iVYvOnTp9PixYvzbVO7dm3V6rE29vb27H6wsLAwWrZsmdblqErPBw9gJhs2bDDZJveNkiCGHPIdOnTQugxVIWCsQGpqKrsPKT9yFwrzzopla2tLa9eupeDgYK1LUQ0CxkqcOnUq3/9f/vBXqFBBtXqsldxdWrlyJbt8bQ0QMPAP3BFcOLdv3+Zq5+7uzqbReOedd4TXpDUEjJXgudNXj7OzGcnw4cNp06ZN3O3lkHnjjTeE1qQ1BIyVMHWVKC0tja5du6ZaPZYoOzubQkJC2DzJPNzc3NhcMh4eHsJr0woCxgqUKlWKTQSdH1PnaICPHNRvvvkmxcbGcrX39fVlcyi//vrrwmvTAgLGCrz99tsm21y+fFmVWqxBQkICtWrVik3EzqNixYpspQJLXA4FAWPhbG1t2bkBUw4ePKhKPdbi1q1brFsaExPD1b506dL0yy+/WNz8vpqP5M1PuKsL/ce5qNZlvNDk5BT6VccjkV1dXWnWrFlch9/yLyiYV2JiIltCRA4OuZtqip+fH61fv57atGlDN2/eVKVG0XQdMOvSMyjMtRiVtrPTupQ8fejmSr8m3tW6jDw5ODiwE4jNmjUz2Xbr1q2qLMJljeSuZ4cOHdgRoi3HdKwBAQH0+++/s3vDLCFkdN1FSsjJoSF37lGOpPXai3mr71SEhrq6aF3GM9zd3alv377s0JwnXDIzM+mjjz5SpTZrJR/ByEcnly5d4mrv7e3NFs4rXry48NpE03XAyI5lZtEaHc/j+193Nyql8UThRYoUYVMCbN++nS0CtnjxYqpWrRrXY5cuXUrnz58XXqO1k48QO3XqxN1e7tb+8MMPQmtSg667SE8tuJ9GnYs5k4NOl9oIdSlGs1RYMeHEiRPP/Fs+WvH19eU69M7LnTt36LPPPjNTdWBKbGwsNW/enH766Seuo5On8/lMmjSpUOtpa0n3RzCyS9mPaVWafo9iBrgWoxIqHMXI/fPcW/ny5QscLnfv3qWGDRvSn3/+afY64cX27dtHvXr1Ykv78vjwww9p+fLlwusSxRABQ0/WVNLr8rPOtrb0qYdx+stpaWlsiQ10jbSxbds2dn6Md73wtm3b0qpVq8hRp+u758cwAVPKzpatW6RXV7L1tQLBi8jdok6dOtGBAwe0LsWqRUdHs9UHHnMu4dO9e3f6/vvvhddlbvr9xj5nqrt+jxBuZz9mk5jr3datW+m1116j3bt3a10KELH3Yfz48dztQ0JCWHfJSMv+GiJgujoXpdpO+p18e07qfdLnhfS/bdy4kVq0aMHm5r1165bW5UAuM2fOZPMmZ2TwnWPs1auXoVaP1P1VJC9bWxqn46OXuKxs+lGHl9EPHTpEK1asYH133r4+aOPrr7+m9PR0mj9/Plf70NBQunLlCk2ePFl4bYWl6yOYojY2NN2jOHnq9NxLpiTRtOQU1Y5e4uLi2AeRx44dO2jevHkIF4NYsGABTZs2jbv9yJEjDTH1pj6/uU+861qMgnV8L9JP6Rm066F6q/ZVqFCBTQXAc4lzypQp9PLLL6tSF5jHhAkTuBdqc3V1ZQMr5aMZPdN1F2lVWgZtSH+gdRkvdEeDlSnPnTtH7777Li1atCjfdra2tmyJjHbt2rFJv61BQccE6cm4cePYxFWjR4/mai8f+WRlZbF5fvVI1wGToOOlZbX0/fffs5O23bt3z7dd48aN2QfPWlZtdHMz3lK/z8vMzKQxY8awHwWe9cIdHR3ZubaiRYvq8jK28SPfSvXp04frbts2bdoIXbrUmhd2F2nGjBmKptD47rvvqHXr1kJrKggEjEHJh8UDBw7kait/WEUtSZKUlGSyTZkyZYTs+3nFihVTZT9q6datG0VFRXG1tbe3Z8MR9HZOBgFjYNu3b6fNmzebbOfh4UF79uwRMtScZ1xNlSpVzL7fvFjavLYpKSnUtGlTWr16NVd7Jycndnd8o0aNhNfGCwFjcOHh4WwOWFP8/PxY397ceIa6qzHXrKurK5u2whTeGf/1RO7iKrm1Q8m0EKIhYAzu+vXrbFpGHpMmTTL7Yl88qxFUrVqVzbAnUlBQEFc7I949npqayk7qHz58WOtSFEPAWICDBw/S7NmzudrKh9Dm7LJcuXKFq518qC/S4MGDTbY5dOiQ0BpEysrKYj8kZ86c0boURRAwFmLs2LF0+vRpk+3c3d25+/Q8YmNj2R3apvTo0cNs+3yefITUvHlzk+14zlfp2Y0bN8jf359NWGUUCBgL8eDBAzbHC885kYCAAAoLCzPbvnm+uO3bt+c6R1IQAwYM4Gq3detWIftXm/x8jXLTquYB42xjQ2463vS5nkHeLl68SEOGDOFq++WXX5rtqsvo0aPZALH8yEdOCxcuNMv+cnvllVeof//+JtvJXYs//vjD7PvXQlJSElvYjefkvtY0Hcn7kp0t7S9dis0Ip0d/ZmVTk1v6fxNzW7BgAbVs2dLkiV9PT0/au3cvmxy8sIvey4+PiIigrl275tuud+/erEvFe7+NKV5eXuzyO8/8tkuXLjXLPvVCfh0DAwPZeSVfX1+ty3khzb7Z8o4XlPDUbbg8kiTqk3hX1/O8vMjAgQO5QkP+gs6cOdMs++SdAX/WrFncAwTzY29vz6ai8PHxMdlW7jYaeV7bF7l+/Tq7o5rnHJhWNPt2h7oUoxpF9DvH6NL7aXSVczpDvUlOTqZRo0Zxte3Xrx/X2tWmbNu2jfsSsHyUNWXKlALvy9vbm41wbdGiBVf7vn37GuachVJyt69hw4Z07949rUvJkyYB42NnRyOLu2qxay4Jjx/TnNQ0rcsolGXLlrF5X3nIRx+VK1cu9D551sB+asKECXTs2DH25ecdYSwfrUycOJHdUd6gQQOux+zbt49+/PFH7rqM6Pz586xL/PDhQ61L+RfVz8H42dvRmpJeVFynXaMsSaKBd+5Rqk5Xk1QiJCSEnaMwNe6lRIkS7NJ169atC3U+ZvPmzSw4pk6dytX+zTffZIvEzZkzh51LkANHPtyPj4+n+/fvs/NElSpVYsuzNGrUSPH4ndu3b7MpJq3B/v37qW7duuzHQk+3TKgeMEPdXKm0vX6vzSy6n0a/Z2ZpXYZZyH30sLAw+vXXX022rVmzJn3zzTfUs2fPQu1z2rRpVKdOHUVTRLi4uLCrIvJmTn369LHYrlFeTp48yQYc8q6DrQZVq6jj6MhWaNSrk48yaaYBVgdQ4vDhw+zEKo8ePXqY5W5c+ciJ9y5gETIzM1mwWuPqCb/88gvrduqFqgHzmad+J++WTUxOIUuc4mrixIl07do1rrZfffUVu7pUGE/vAlYyn4k5yUcuy5Yt02TfeiB3k0wNGVCLagEz3aM4VRR8w1thLExNo+MW0jV63oMHD9iVomyOxeE8PT3Z/DHm0LFjRzZjvlru3r3LVkxcs2aNavvUq3Xr1rFxR1pTJWBqOzpQbxf9TgZ0PTubpqZY9ry1Z86cYedYeAwYMIAN1iusjIwMtuZP+/btucKtMOLi4uitt95iJzvhb8uXL2fzN2tJeMCUsLWl77w8Re+mwLIlifrfuWfIAXVKffzxx2z0Lo8dO3awk7XmsGnTJnZlY8WKFdyLvvOSg6V///5sxj5LuRXAnBYuXKho9UhzExowLjY2tLpUCSppp9+rRuF3k+iPLGOsK11Yjx8/ZkcTZ8+eNdnWzs6OXbou7PmYp+R9hoSEUOnSpWnYsGF05MiRAv+ttLQ0FlZyt08OlsWLF5ulRkv16aef0vvvv8+9DrY52RBREhG5i/jj9kS6He9CT45eUixgvItRlSxZks2yFxwcTK+++mq+beXultz92bx5MxsJDMoNGjSILcZHTyYfU2NlSKEBA6DEK6+88q8JwjMzM9nRD1aoNA/5aK9v376qBYyu10UC63LhwgW2gTj9+vVjAxvVgiMYACtjY2PDJh07ceKE+H0hYABAFP2egQUAw0PAAIAwCBgAEAYBAwDCIGAAQBgEDAAIg4ABAGEQMAAgDAIGAIRBwACAMAgYABAGAQMAwiBgAEAYBAwACIOAAQBhEDAAIAwCBgCEQcAAgDAIGAAQBgEDAMIgYABAGAQMAAiDhddA91xcXKhcuXLk6upKzs7ObBnZe/fu0dWrVyk72zrWFTcqBAzohpOTEwUFBVHt2rWpatWq1KBBA/L29jb5uP3799ONGzdo586dtGXLFkpNTVWlXjBN6MJrgYGBtGjRogI/PjMzk/1aPZWcnEwXL16kM2fOUFxcHCUkJLB1i/WuZcuW9Pnnn2tdxj8GDBhAx48f17oMRg6Qvn37UocOHViwmMOpU6do+fLltGrVKoqPjzfL38zLgQMH2FFVfs6fP0/du3cXVoMsNDSUPvzwQ0WP+fbbb2nhwoXCaspNDhhJxNa4cWNJDTt37pRGjRolBQYGCnkehd26dOmiyuvAS35ftH5N6tevL0VGRgp/rlu2bGH7EvEckpKSTO7/xIkTQl/HNm3aKH5N1q5dq+Z7bfyAyS0uLk6aP3++FBwcLDk5OWn+RSIEzD+bjY2NFBoaKh09elT15yx/0eV9m/MzoXXAjBw5UsrJyVH0OixZskTt992yAia3GzduSD169NDky5R7Q8CQVK9ePenKlStaP3Xp/PnzUoUKFczynLQMmGHDhil+7vv371f9fbfoy9QvvfQSrVy5kqKioqhx48Zal2O1QkND6eDBg1S+fHmtS6FXXnmF3nrrLa3LKJQaNWooPqcnfwdatWolrKYXseiAeUoOF/kFjoyMJH9/f63LsRo1a9ZkJ+SXLl1KdnZ2WpdjEd555x32WXZ0dOR+jPz6N23alF00UZtVBMxTLVq0oCNHjlDXrl21LsXitWvXjqKjo6latWpal2IxOnXqRBEREeTuzn/Rd926dewqnVasKmBkzs7OtGbNGtZ1AjH69OlDmzZtYgPkwDyCgoJoyZIlih6zYMECzX9MrXagXY8ePejKlSs0btw4rUuxKD179qRly5YV+u/89ttvdO7cOTZ4Tj60j4+PZwPo5K5W2bJl2fgT+ehI7oa1atWKihQpYpb69ahOnTq0bds2srfn/7rKRy7vvfee0Lp46CJgYmJiWD/xeW5ubmRr+/dBVpkyZahKlSrsg/XGG2/8898LY+zYseTh4cEGKWnRP32e/BrIr4Voly5dEvJ3w8LCFP/KPpWSkkJr166lPXv2sJG5iYmJL2x76tSpZ/4tf/HkL2GTJk2oc+fOFBAQUKAa9Khp06a0evVqReEif4607BY9T/PL1AUZ+FO7dm1p6NCh0q+//qr4ct3zVq9eLfRSHe9larmd2pcRzbXVqlWrQK/948ePpfHjx7MxMuaqRf5s/Pzzzy/cZ2hoqFn2I/oydUGGeWhxKdrEZsyAyb1VrlxZmjNnDhv3UlCzZ88W9iJbesA4OTlJp06dUvyaR0ZGSn5+fsLqCg4OznPsjRECpmzZslx/P7cdO3ZIxYsX1/zz8Nxm/IB5utnb20s9e/aUYmJiFL0xTw0aNEjI62DJAePu7i5dvHhR0eucmJgode7cWZX65PAbPHiwFB8f/8/+9R4wPj4+il9TDUbo8m6WEzBPN/lwe+LEiVJ6erqiN0lu7+vra/bXwZID5v/+7/8UvcaXL1+WypUrp3qdXl5e0q5du1gNeg6YRo0asW6jEirfW6Ros8jL1JIk0eTJk9nt/n/99Rf345ydndnlVScnJ6H1WYrmzZvT4MGDudtHRUWxqz7Xr18XWlde7ty5w6426fmqYZ06dWjDhg2KLmDo4VK0KRZ3BPN8DUp/EUaPHm3WGizxCEY+SlRyGH/q1CnJ2dlZ87rlzdPT0yx/x5xHMKVKlZKuX7/O/XpKOj9yebpZ5BFMbtHR0exSX0JCAvdjRo4cyS6Rw4sNGTKEKlWqxNU2OTmZjULNPbePlu7du6d1Cc/w8/OjXbt2sfE9vJYuXar7IxeylpG8Bw4coI4dO3K39/LyYgPxIG8eHh40atQo7vbh4eF04cIFoTUZVeXKlenYsWOKxu7IXU09jXPJj1UEjOzQoUPsg85r6NChQusxsrFjx9LLL7/M1Xbq1Km4LeMFPD09afv27ex/ee3cuZPat28vtC5zspqAoSfTBG7bto2rbfXq1dlJYnhWmTJlaPjw4Vxtf/75Z/rkk0+E12RE8lHy7t27ubuZ9KRbFBwczEY9G4VVBYxsxIgR3G1Hjx4ttBYjkvv9vFMvTJ48WXg9RuTt7c3CNzAwkPsxWt8VXVBWFzAXLlzgnuy4bdu2VLJkSeE1GQnvicXo6Gh2XxE8S/48yUcuVapU4X6MUU7o5sXqAkY2bdo0SktL42pbs2ZN4fUYhaOjI9WvX5+r7dSpU4XXYzSurq5sZr/XX3+d+zF6u3FRKasMmGvXrrE7d3kYfXpFc2revDlXu0uXLtHevXuF12MkTk5O7K5opUcuRg4XstaAkW3cuJGrXbt27YTXYhR169blahcRESG8FiPx8vJiMym+/fbb3I8x0qXo/FhtwMiHqjz8/f3JwcFBeD0y+ahKkiSh28SJEwtcH2/A4LL0/7i4uLBLy0q6RUa7FJ0fqw2YlJQUOn36NFdbdJP+xvMlSUhIoBMnTqhSjxFUqlRJ0dUiI16Kzo/VBgw9uaLEo0SJEsJr0Ts7OzsqXbq0yXbR0dGq1GOJjHopOj9WHTDPT734IriSxH8Ud/jwYeG1WCIjX4rOj1UHDO+laj8/P+G16J2XlxdXO5GLzVsyJbexGIlVB8yff/6pdQmGwTvpdGpqqvBaLNF3332ndQlCWHXA3L17V+sSDIP3hjxRKxZYut69exfqCp9eWXXAAD/eLhKOYApu0qRJ1KtXL63LMCsEDHDhXTdKrTFDlmrhwoUWNSzCqgNGbzcydu3alWxsbIRuBb3DmXdGQF9f3wL9ffhb0aJF2aV+JWNn9MyqA6ZixYpc7bKzs4XXone8XR8fHx/htViDZcuWUfHixbUuo9CsOmB4F2c/e/as8FosBeYy/jc5nFu0aKFo+orq1avTN998I7QuNVh1wPj7+3O1w3yyREePHuVqV69ePeG1GM0HH3zA7i4fPnw4Wz6FV58+fah79+5CaxPNqgPm1Vdf5WqnZG0lS3X16lWudrVr1xZei5HExMSw7o7s9OnTbHWFnJwcrsfa2NjQqlWrDB0yVhswpUqV4goYSZK477y2dLGxsSbbvPbaa2xKSMjbgQMH2LI4SsybN8+wwW21AdO6dWuudvv27WMhA3wBIxs4cKDwWoxs9uzZ1L9/f+727u7uFBkZyZY4MRqrDZg2bdpwtYuKihJei1HIh/s8eF9ba7Z48WK2TCwvNzc39hijscqAqVOnDvdMdZh+4H927drF1a5u3bpUtWpV4fUY3YABAyguLo67fcOGDdmE4Ua6fG2VAfPtt99yLXCfnp6O8y+5nD59mm7fvs3VdtasWcLrMbrk5GQKCwtT9JiWLVvSV199Jawmc7O6gAkKCuKe38WIh6Si8Y7lkLtJ1atXF16P0clHyOHh4YrO8/Xr188wtxNYXcBMnz6du618pAPPWr9+PXfbCRMmCK3FUsifs88++0zRY9atW2eIq3VWFTBz5szhvsdD/qU+d+6c8JqMZuvWrdznDbp162Yxk1eLNm3aNEUXFEqVKsUmBy9TpozQugrLagJmzJgxiha0xzmEvGVnZ9OgQYO422/YsAEhwyE9PZ2dX/ntt9+4HxMQEMBO+vKcT9SKVQRMz549FXWNLl++zN44yNuuXbu4F66ztbVls7V5eHgIr8volIY3PbndZcWKFcJqKiyLD5jw8HDFb8AHH3wgrB5LMWPGDO623t7ebFVDPfzSyrW88cYbWpfxQsePH2eX+ZUsW9KxY0fdzoZn0QEzduxYmjt3rqLHfPHFF7R9+3ZhNVmKmJgYmjJlCnf7oKAgNira1dVVaF358fX1ZV0QJYugaeHIkSP00UcfKXrMpEmTqEOHDsJqKowkIpJEbI0bN5Z4rF271qz79fHxkfbv38+179xOnjwp2dramv116NKlC9f+5Xai3gsRm42NjRQTE6PoNT59+rTk7e2teq2dOnWS7t+/z2oIDQ01y99MSkoy+XxPnDhR4L+/d+9eRa/tgwcPpGbNmmn+uci9WdwRjNyHjY2NpSZNmih+7JAhQ7jvdIW/bwQdNmyYosdUr16dzp8/T82aNRNWV25ubm7sMvD69eu55//Ri5CQEDYYj5fcBV25cqWuzndZRMC8/PLLNH78eDYx1Lx589jNYUo8fvyYnQg+dOiQsBotVXR0NIWGhtKjR4+4H1O8eHF2olj+4pcvX15IXba2tmymfrkrN3jwYCH7EO2vv/6itm3bco+epifnmPS2BIqhukjOzs5S/fr1pT59+kgzZsyQjh49qugw8nkpKSlSq1athB4mWmoXKffWq1evAr3+OTk50qJFi6TAwECz1OHq6iqFh4dLly5deuE+jdJFerrVrFlTSktLU/S6rlu3TrKzs9P8c8G3mpZg5cqVoy5duvzrv8uHep6enmxlRfmoRD7crVu3rtlu9pK7QwMGDOC+iU80+bmpISoqihITE836N1esWMGuZsibEjY2NmzqAnmLiIhgt2ds27ZNcVfVwcGBHakMHTqULThvSX7//XcaMWIEzZ8/n/sxnTt3Zt1Xre9b0kXA1KtXT/WpFjMyMtiNZuvWrVN1v/mRP0RqaNKkiZC7xOXXU+6aFHRgnfw4eXv48CG7kvLHH3/QjRs36MqVK3Tz5s1/7texs7Nj3WJfX1/WxapRo4auLz2bw4IFC9gsAP369eN+zOeff85eu40bNwqtzRTNu0hqu3Xrlqpn23m7SGqR3xeRz3fWrFlaP8V8Ga2L9HRzcnKSLly4oPj5NmjQQLXP+vObRZzkVSIyMpJN67hv3z6tS7FYo0aNoh49enAv1gZ85CO7gIAANm2GEkuWLNFstQerChi5P9q6dWuzn3+Af1u9ejWbskHJ1SUwTe7aK72doHLlyuz90ILFB4zcb5df3DfffJNNtoxxLurZs2cPVahQQXeXTY3u0KFDikZRy4KDg9kYGS1Y5DmYR48eSUuWLJEqVqyoWf/z6WZt52Dy2ho2bCjt27dP0+edlpbGzg+VLFnSLM9J7XMwz29z585V/BpMmDBB7ffesgImIyNDmj59OhvGrvaX6EUbAuZ/W8eOHaWbN2+q/pz37Nkjubm5mfW5aB0w8nbw4EHFr4W/v79q77fhu0gXL15kl5pHjx7NLr86Ozuzmxyx1Ig+/fTTT1S2bFk2cnrLli1Cz9HExsbSuHHj2BrkLVq04F5f20g6depE169fV/SYvXv3UrVq1YTVlJvQcTCJiYlmG2eSmZnJrumfPXuWsrKy6NixY4pmZNdSfHy8rsbbaH2SWw7/VatWsc3JyYneffddNiS+ZcuWhf7b8udjw4YN7HyD6DXFIyIiqFixYvm2Ef0ZTUhIoAYNGrBZAJQICQlhP8Si2TzpIim7eQdAAHt7e6pVqxYbievn58dGeOc3KjcpKYnOnDnDAvPkyZNsilMl9+2AeAgYABDG8OdgAEC/EDAAIAwCBgCEQcAAgDAIGAAQBgEDAMIgYABAGAQMAAiDgAEAYRAwACAMAgYAhEHAAIAwCBgAEAYBAwDCIGAAQBgEDAAIg4ABAGEQMAAgDAIGAIRBwACAMAgYABAGAQMAwiBgAEAYBAwACIOAAQBhEDAAIAwCBgCEQcAAgDAIGAAQBgEDAMIgYABAGAQMAAiDgAEAYRAwACAMAgYAhEHAAIAwCBgAEAYBAwDCIGAAQBgEDAAIg4ABAGEQMAAgDAIGAIRBwACAMAgYABAGAQMAwiBgAEAYBAwACIOAAQBhEDAAIAwCBgCEQcAAgDAIGAAQBgEDAMIgYABAGAQMAAiDgAEAYf4/AAD//+GjqRO+lL7EAAAAAElFTkSuQmCC" vertex="1" parent="1">
          <mxGeometry x="400" y="325" width="105" height="105" as="geometry" />
        </mxCell>
        <mxCell id="6xzkn71QcSRI05iNK7XL-54" value="" style="edgeStyle=orthogonalEdgeStyle;rounded=0;sketch=1;orthogonalLoop=1;jettySize=auto;html=1;" edge="1" parent="1" source="6xzkn71QcSRI05iNK7XL-7" target="6xzkn71QcSRI05iNK7XL-5">
          <mxGeometry relative="1" as="geometry" />
        </mxCell>
        <mxCell id="6xzkn71QcSRI05iNK7XL-7" value="" style="sketch=0;pointerEvents=1;shadow=0;dashed=0;html=1;strokeColor=none;labelPosition=center;verticalLabelPosition=bottom;verticalAlign=top;align=center;fillColor=#505050;shape=mxgraph.mscae.oms.jobs" vertex="1" parent="1">
          <mxGeometry x="426.25" y="460" width="52.5" height="50" as="geometry" />
        </mxCell>
        <mxCell id="6xzkn71QcSRI05iNK7XL-9" value="User" style="text;html=1;strokeColor=none;fillColor=none;align=center;verticalAlign=middle;whiteSpace=wrap;rounded=0;" vertex="1" parent="1">
          <mxGeometry x="50" y="410" width="60" height="30" as="geometry" />
        </mxCell>
        <mxCell id="6xzkn71QcSRI05iNK7XL-11" value="Trigger" style="text;html=1;strokeColor=none;fillColor=none;align=center;verticalAlign=middle;whiteSpace=wrap;rounded=0;" vertex="1" parent="1">
          <mxGeometry x="330" y="340" width="60" height="30" as="geometry" />
        </mxCell>
        <mxCell id="6xzkn71QcSRI05iNK7XL-12" value="Job Runner" style="text;html=1;strokeColor=none;fillColor=none;align=center;verticalAlign=middle;whiteSpace=wrap;rounded=0;" vertex="1" parent="1">
          <mxGeometry x="416.25" y="515" width="72.5" height="30" as="geometry" />
        </mxCell>
        <mxCell id="6xzkn71QcSRI05iNK7XL-13" value="Cloud" style="html=1;verticalLabelPosition=bottom;align=center;labelBackgroundColor=#ffffff;verticalAlign=top;strokeWidth=2;strokeColor=#0080F0;shadow=0;dashed=0;shape=mxgraph.ios7.icons.cloud;" vertex="1" parent="1">
          <mxGeometry x="560" y="352.5" width="110" height="67.5" as="geometry" />
        </mxCell>
        <mxCell id="6xzkn71QcSRI05iNK7XL-15" value="" style="shape=image;html=1;verticalAlign=top;verticalLabelPosition=bottom;labelBackgroundColor=#ffffff;imageAspect=0;aspect=fixed;image=https://cdn4.iconfinder.com/data/icons/socialcones/508/Gitlab-128.png" vertex="1" parent="1">
          <mxGeometry x="280" y="455" width="60" height="60" as="geometry" />
        </mxCell>
        <mxCell id="6xzkn71QcSRI05iNK7XL-16" value="IaC Repository" style="text;html=1;strokeColor=none;fillColor=none;align=center;verticalAlign=middle;whiteSpace=wrap;rounded=0;" vertex="1" parent="1">
          <mxGeometry x="267.5" y="520" width="85" height="30" as="geometry" />
        </mxCell>
        <mxCell id="6xzkn71QcSRI05iNK7XL-17" value="Resource Creation" style="text;html=1;strokeColor=none;fillColor=none;align=center;verticalAlign=middle;whiteSpace=wrap;rounded=0;" vertex="1" parent="1">
          <mxGeometry x="505" y="460" width="130" height="30" as="geometry" />
        </mxCell>
        <mxCell id="6xzkn71QcSRI05iNK7XL-21" value="Request" style="swimlane;fontStyle=0;childLayout=stackLayout;horizontal=1;startSize=30;horizontalStack=0;resizeParent=1;resizeParentMax=0;resizeLast=0;collapsible=1;marginBottom=0;" vertex="1" parent="1">
          <mxGeometry x="130" y="250" width="60" height="120" as="geometry" />
        </mxCell>
        <mxCell id="6xzkn71QcSRI05iNK7XL-22" value="Param1" style="text;strokeColor=none;fillColor=none;align=left;verticalAlign=middle;spacingLeft=4;spacingRight=4;overflow=hidden;points=[[0,0.5],[1,0.5]];portConstraint=eastwest;rotatable=0;" vertex="1" parent="6xzkn71QcSRI05iNK7XL-21">
          <mxGeometry y="30" width="60" height="30" as="geometry" />
        </mxCell>
        <mxCell id="6xzkn71QcSRI05iNK7XL-23" value="Param2" style="text;strokeColor=none;fillColor=none;align=left;verticalAlign=middle;spacingLeft=4;spacingRight=4;overflow=hidden;points=[[0,0.5],[1,0.5]];portConstraint=eastwest;rotatable=0;" vertex="1" parent="6xzkn71QcSRI05iNK7XL-21">
          <mxGeometry y="60" width="60" height="30" as="geometry" />
        </mxCell>
        <mxCell id="6xzkn71QcSRI05iNK7XL-24" value="..." style="text;strokeColor=none;fillColor=none;align=left;verticalAlign=middle;spacingLeft=4;spacingRight=4;overflow=hidden;points=[[0,0.5],[1,0.5]];portConstraint=eastwest;rotatable=0;" vertex="1" parent="6xzkn71QcSRI05iNK7XL-21">
          <mxGeometry y="90" width="60" height="30" as="geometry" />
        </mxCell>
        <mxCell id="6xzkn71QcSRI05iNK7XL-25" value="" style="shape=image;html=1;verticalAlign=top;verticalLabelPosition=bottom;labelBackgroundColor=#ffffff;imageAspect=0;aspect=fixed;image=https://cdn3.iconfinder.com/data/icons/ballicons-reloaded-free/512/icon-91-128.png" vertex="1" parent="1">
          <mxGeometry x="242.5" y="150" width="60" height="60" as="geometry" />
        </mxCell>
        <mxCell id="6xzkn71QcSRI05iNK7XL-28" value="Form" style="text;html=1;strokeColor=none;fillColor=none;align=center;verticalAlign=middle;whiteSpace=wrap;rounded=0;" vertex="1" parent="1">
          <mxGeometry x="130" y="220" width="60" height="30" as="geometry" />
        </mxCell>
        <mxCell id="6xzkn71QcSRI05iNK7XL-34" value="Approval Request" style="text;html=1;strokeColor=none;fillColor=none;align=center;verticalAlign=middle;whiteSpace=wrap;rounded=0;" vertex="1" parent="1">
          <mxGeometry x="220" y="250" width="100" height="30" as="geometry" />
        </mxCell>
        <mxCell id="6xzkn71QcSRI05iNK7XL-42" style="edgeStyle=orthogonalEdgeStyle;rounded=0;orthogonalLoop=1;jettySize=auto;html=1;exitX=0.25;exitY=1;exitDx=0;exitDy=0;entryX=0.184;entryY=1.044;entryDx=0;entryDy=0;entryPerimeter=0;" edge="1" parent="1" source="6xzkn71QcSRI05iNK7XL-5" target="6xzkn71QcSRI05iNK7XL-5">
          <mxGeometry relative="1" as="geometry" />
        </mxCell>
        <mxCell id="6xzkn71QcSRI05iNK7XL-43" value="" style="endArrow=classic;startArrow=classic;html=1;rounded=0;exitX=0.5;exitY=0;exitDx=0;exitDy=0;entryX=0.5;entryY=1;entryDx=0;entryDy=0;" edge="1" parent="1" source="6xzkn71QcSRI05iNK7XL-1" target="6xzkn71QcSRI05iNK7XL-25">
          <mxGeometry width="100" height="100" relative="1" as="geometry">
            <mxPoint x="240" y="400" as="sourcePoint" />
            <mxPoint x="340" y="300" as="targetPoint" />
          </mxGeometry>
        </mxCell>
        <mxCell id="6xzkn71QcSRI05iNK7XL-49" value="" style="endArrow=classic;startArrow=classic;html=1;rounded=0;sketch=1;exitX=1;exitY=0.5;exitDx=0;exitDy=0;entryX=0;entryY=0.5;entryDx=0;entryDy=0;entryPerimeter=0;" edge="1" parent="1" source="6xzkn71QcSRI05iNK7XL-15" target="6xzkn71QcSRI05iNK7XL-7">
          <mxGeometry width="100" height="100" relative="1" as="geometry">
            <mxPoint x="340" y="570" as="sourcePoint" />
            <mxPoint x="440" y="470" as="targetPoint" />
          </mxGeometry>
        </mxCell>
        <mxCell id="6xzkn71QcSRI05iNK7XL-50" value="Clone" style="text;html=1;strokeColor=none;fillColor=none;align=center;verticalAlign=middle;whiteSpace=wrap;rounded=0;" vertex="1" parent="1">
          <mxGeometry x="352.5" y="460" width="60" height="30" as="geometry" />
        </mxCell>
        <mxCell id="6xzkn71QcSRI05iNK7XL-52" value="" style="endArrow=classic;html=1;rounded=0;sketch=1;exitX=1;exitY=0.5;exitDx=0;exitDy=0;exitPerimeter=0;entryX=0.273;entryY=0.993;entryDx=0;entryDy=0;entryPerimeter=0;" edge="1" parent="1" source="6xzkn71QcSRI05iNK7XL-7" target="6xzkn71QcSRI05iNK7XL-13">
          <mxGeometry width="50" height="50" relative="1" as="geometry">
            <mxPoint x="510" y="480" as="sourcePoint" />
            <mxPoint x="560" y="430" as="targetPoint" />
          </mxGeometry>
        </mxCell>
        <mxCell id="6xzkn71QcSRI05iNK7XL-53" value="" style="endArrow=classic;startArrow=classic;html=1;rounded=0;sketch=1;exitX=0.5;exitY=0;exitDx=0;exitDy=0;exitPerimeter=0;" edge="1" parent="1" source="6xzkn71QcSRI05iNK7XL-7" target="6xzkn71QcSRI05iNK7XL-5">
          <mxGeometry width="100" height="100" relative="1" as="geometry">
            <mxPoint x="440" y="530" as="sourcePoint" />
            <mxPoint x="540" y="430" as="targetPoint" />
          </mxGeometry>
        </mxCell>
        <mxCell id="6xzkn71QcSRI05iNK7XL-57" value="" style="shape=flexArrow;endArrow=classic;startArrow=classic;html=1;rounded=0;sketch=1;exitX=1;exitY=0.5;exitDx=0;exitDy=0;entryX=0;entryY=0.5;entryDx=0;entryDy=0;" edge="1" parent="1" source="6xzkn71QcSRI05iNK7XL-1" target="6xzkn71QcSRI05iNK7XL-5">
          <mxGeometry width="100" height="100" relative="1" as="geometry">
            <mxPoint x="240" y="400" as="sourcePoint" />
            <mxPoint x="340" y="300" as="targetPoint" />
          </mxGeometry>
        </mxCell>
        <mxCell id="6xzkn71QcSRI05iNK7XL-59" value="Response" style="text;html=1;strokeColor=none;fillColor=none;align=center;verticalAlign=middle;whiteSpace=wrap;rounded=0;" vertex="1" parent="1">
          <mxGeometry x="330" y="390" width="60" height="30" as="geometry" />
        </mxCell>
      </root>
    </mxGraphModel>
  </diagram>
</mxfile>
